<svg width="40" height="41" viewBox="0 0 40 41" fill="none" xmlns="http://www.w3.org/2000/svg">
<path d="M24.4908 13.9692H24.5072M20.4091 35.1943H9.79654C8.49748 35.1943 7.25163 34.6782 6.33306 33.7597C5.41449 32.8411 4.89844 31.5952 4.89844 30.2962V10.7038C4.89844 9.40471 5.41449 8.15886 6.33306 7.24028C7.25163 6.32171 8.49748 5.80566 9.79654 5.80566H29.3889C30.688 5.80566 31.9339 6.32171 32.8524 7.24028C33.771 8.15886 34.287 9.40471 34.287 10.7038V21.3163" stroke="white" stroke-width="1.86594" stroke-linecap="round" stroke-linejoin="round"/>
<path d="M4.89844 27.0308L13.0619 18.8673C14.5771 17.4093 16.4449 17.4093 17.96 18.8673L23.6745 24.5818" stroke="white" stroke-width="1.86594" stroke-linecap="round" stroke-linejoin="round"/>
<path d="M22.8594 23.7654L24.4921 22.1327C25.6007 21.0665 26.897 20.7792 28.1069 21.2739M31.0229 36.827V27.0308M31.0229 27.0308L35.921 31.9289M31.0229 27.0308L26.1248 31.9289" stroke="white" stroke-width="1.86594" stroke-linecap="round" stroke-linejoin="round"/>
</svg>
