<svg width="18" height="18" viewBox="0 0 18 18" fill="none" xmlns="http://www.w3.org/2000/svg">
<path d="M9.41789 0.570435C7.74218 0.570435 6.10409 1.06734 4.71078 1.99832C3.31747 2.9293 2.23152 4.25254 1.59025 5.8007C0.948983 7.34886 0.781198 9.05241 1.10811 10.6959C1.43503 12.3394 2.24197 13.8491 3.42688 15.034C4.61179 16.2189 6.12146 17.0259 7.76498 17.3528C9.40849 17.6797 11.112 17.5119 12.6602 16.8706C14.2084 16.2294 15.5316 15.1434 16.4626 13.7501C17.3936 12.3568 17.8905 10.7187 17.8905 9.04301C17.888 6.7967 16.9946 4.6431 15.4062 3.05472C13.8178 1.46634 11.6642 0.572901 9.41789 0.570435ZM9.41789 16.8378C7.87623 16.8378 6.36919 16.3806 5.08735 15.5241C3.80551 14.6676 2.80643 13.4502 2.21646 12.0259C1.6265 10.6016 1.47213 9.03436 1.7729 7.52233C2.07366 6.01029 2.81604 4.62139 3.90616 3.53128C4.99628 2.44116 6.38517 1.69878 7.89721 1.39801C9.40925 1.09725 10.9765 1.25161 12.4008 1.84158C13.8251 2.43155 15.0425 3.43062 15.899 4.71247C16.7555 5.99431 17.2127 7.50135 17.2127 9.04301C17.2104 11.1096 16.3885 13.091 14.9271 14.5523C13.4658 16.0136 11.4845 16.8355 9.41789 16.8378ZM14.5014 9.04301C14.5014 9.13289 14.4657 9.2191 14.4022 9.28265C14.3386 9.34621 14.2524 9.38191 14.1625 9.38191H9.41789C9.32801 9.38191 9.24181 9.34621 9.17825 9.28265C9.11469 9.2191 9.07899 9.13289 9.07899 9.04301V4.29837C9.07899 4.20849 9.11469 4.12228 9.17825 4.05873C9.24181 3.99517 9.32801 3.95947 9.41789 3.95947C9.50778 3.95947 9.59398 3.99517 9.65753 4.05873C9.72109 4.12228 9.7568 4.20849 9.7568 4.29837V8.70411H14.1625C14.2524 8.70411 14.3386 8.73981 14.4022 8.80337C14.4657 8.86693 14.5014 8.95313 14.5014 9.04301Z" fill="white"/>
</svg>
