<svg width="16" height="18" viewBox="0 0 16 18" fill="none" xmlns="http://www.w3.org/2000/svg">
<path d="M14.2493 17.75H1.74935C1.52834 17.75 1.31637 17.6622 1.16009 17.5059C1.00381 17.3496 0.916016 17.1377 0.916016 16.9167V1.08334C0.916016 0.862322 1.00381 0.65036 1.16009 0.49408C1.31637 0.337799 1.52834 0.250002 1.74935 0.250002H10.9577C11.1702 0.249536 11.3747 0.330847 11.5289 0.477085L14.8206 3.57334C14.9032 3.65135 14.9691 3.74538 15.0141 3.84968C15.0592 3.95399 15.0825 4.06638 15.0827 4.18V16.9167C15.0827 17.1377 14.9949 17.3496 14.8386 17.5059C14.6823 17.6622 14.4704 17.75 14.2493 17.75ZM1.74935 1.08334V16.9167H14.2493V4.18L10.9577 1.08334H1.74935Z" fill="#FEFFFF"/>
<path d="M14.6244 4.41667H11.3327C11.1117 4.41667 10.8997 4.32887 10.7434 4.17259C10.5871 4.01631 10.4993 3.80435 10.4993 3.58333V0.666667C10.4993 0.55616 10.5432 0.450179 10.6214 0.372039C10.6995 0.293899 10.8055 0.25 10.916 0.25C11.0265 0.25 11.1325 0.293899 11.2106 0.372039C11.2888 0.450179 11.3327 0.55616 11.3327 0.666667V3.58333H14.6244C14.7349 3.58333 14.8408 3.62723 14.919 3.70537C14.9971 3.78351 15.041 3.88949 15.041 4C15.041 4.11051 14.9971 4.21649 14.919 4.29463C14.8408 4.37277 14.7349 4.41667 14.6244 4.41667ZM7.58268 4.83333H3.83268C3.72218 4.83333 3.61619 4.78943 3.53805 4.71129C3.45991 4.63315 3.41602 4.52717 3.41602 4.41667C3.41602 4.30616 3.45991 4.20018 3.53805 4.12204C3.61619 4.0439 3.72218 4 3.83268 4H7.58268C7.69319 4 7.79917 4.0439 7.87731 4.12204C7.95545 4.20018 7.99935 4.30616 7.99935 4.41667C7.99935 4.52717 7.95545 4.63315 7.87731 4.71129C7.79917 4.78943 7.69319 4.83333 7.58268 4.83333ZM12.166 7.33333H3.83268C3.72218 7.33333 3.61619 7.28943 3.53805 7.21129C3.45991 7.13315 3.41602 7.02717 3.41602 6.91667C3.41602 6.80616 3.45991 6.70018 3.53805 6.62204C3.61619 6.5439 3.72218 6.5 3.83268 6.5H12.166C12.2765 6.5 12.3825 6.5439 12.4606 6.62204C12.5388 6.70018 12.5827 6.80616 12.5827 6.91667C12.5827 7.02717 12.5388 7.13315 12.4606 7.21129C12.3825 7.28943 12.2765 7.33333 12.166 7.33333ZM12.166 9.83333H3.83268C3.72218 9.83333 3.61619 9.78943 3.53805 9.71129C3.45991 9.63315 3.41602 9.52717 3.41602 9.41667C3.41602 9.30616 3.45991 9.20018 3.53805 9.12204C3.61619 9.0439 3.72218 9 3.83268 9H12.166C12.2765 9 12.3825 9.0439 12.4606 9.12204C12.5388 9.20018 12.5827 9.30616 12.5827 9.41667C12.5827 9.52717 12.5388 9.63315 12.4606 9.71129C12.3825 9.78943 12.2765 9.83333 12.166 9.83333ZM12.166 12.3333H3.83268C3.72218 12.3333 3.61619 12.2894 3.53805 12.2113C3.45991 12.1332 3.41602 12.0272 3.41602 11.9167C3.41602 11.8062 3.45991 11.7002 3.53805 11.622C3.61619 11.5439 3.72218 11.5 3.83268 11.5H12.166C12.2765 11.5 12.3825 11.5439 12.4606 11.622C12.5388 11.7002 12.5827 11.8062 12.5827 11.9167C12.5827 12.0272 12.5388 12.1332 12.4606 12.2113C12.3825 12.2894 12.2765 12.3333 12.166 12.3333ZM12.166 14.8333H3.83268C3.72218 14.8333 3.61619 14.7894 3.53805 14.7113C3.45991 14.6332 3.41602 14.5272 3.41602 14.4167C3.41602 14.3062 3.45991 14.2002 3.53805 14.122C3.61619 14.0439 3.72218 14 3.83268 14H12.166C12.2765 14 12.3825 14.0439 12.4606 14.122C12.5388 14.2002 12.5827 14.3062 12.5827 14.4167C12.5827 14.5272 12.5388 14.6332 12.4606 14.7113C12.3825 14.7894 12.2765 14.8333 12.166 14.8333Z" fill="#FEFFFF"/>
</svg>
