<svg width="27" height="27" viewBox="0 0 27 27" fill="none" xmlns="http://www.w3.org/2000/svg">
<path d="M21.7088 4.08255H19.291V3.27662C19.291 3.06288 19.2061 2.85789 19.055 2.70675C18.9038 2.55561 18.6988 2.4707 18.4851 2.4707C18.2714 2.4707 18.0664 2.55561 17.9152 2.70675C17.7641 2.85789 17.6792 3.06288 17.6792 3.27662V4.08255H9.61996V3.27662C9.61996 3.06288 9.53505 2.85789 9.38391 2.70675C9.23277 2.55561 9.02779 2.4707 8.81404 2.4707C8.6003 2.4707 8.39531 2.55561 8.24417 2.70675C8.09303 2.85789 8.00812 3.06288 8.00812 3.27662V4.08255H5.59036C5.163 4.08297 4.75327 4.25292 4.45108 4.55511C4.14889 4.8573 3.97894 5.26703 3.97852 5.69439V21.8128C3.97894 22.2402 4.14889 22.6499 4.45108 22.9521C4.75327 23.2543 5.163 23.4242 5.59036 23.4247H21.7088C22.1361 23.4242 22.5459 23.2543 22.8481 22.9521C23.1502 22.6499 23.3202 22.2402 23.3206 21.8128V5.69439C23.3202 5.26703 23.1502 4.8573 22.8481 4.55511C22.5459 4.25292 22.1361 4.08297 21.7088 4.08255ZM21.7088 8.91807H5.59036V5.69439H8.00812V6.50031C8.00812 6.71405 8.09303 6.91904 8.24417 7.07018C8.39531 7.22132 8.6003 7.30623 8.81404 7.30623C9.02779 7.30623 9.23277 7.22132 9.38391 7.07018C9.53505 6.91904 9.61996 6.71405 9.61996 6.50031V5.69439H17.6792V6.50031C17.6792 6.71405 17.7641 6.91904 17.9152 7.07018C18.0664 7.22132 18.2714 7.30623 18.4851 7.30623C18.6988 7.30623 18.9038 7.22132 19.055 7.07018C19.2061 6.91904 19.291 6.71405 19.291 6.50031V5.69439H21.7088V8.91807Z" fill="#E41C26"/>
</svg>
