<svg width="20" height="20" viewBox="0 0 20 20" fill="none" xmlns="http://www.w3.org/2000/svg">
<path d="M6.91797 12.1573C6.91797 13.3517 7.83464 14.3147 8.97352 14.3147H11.2976C12.2883 14.3147 13.0939 13.4721 13.0939 12.435C13.0939 11.3054 12.6032 10.9073 11.8717 10.648L8.14019 9.35171C7.40871 9.09245 6.91797 8.6943 6.91797 7.56467C6.91797 6.52764 7.72352 5.68504 8.71426 5.68504H11.0383C12.1772 5.68504 13.0939 6.64801 13.0939 7.84245" stroke="white" stroke-width="1.5" stroke-linecap="round" stroke-linejoin="round"/>
<path d="M10 4.44444V15.5556" stroke="white" stroke-width="1.5" stroke-linecap="round" stroke-linejoin="round"/>
<path d="M12.6669 18.8889H7.33355C2.88911 18.8889 1.11133 17.1111 1.11133 12.6667V7.33334C1.11133 2.88889 2.88911 1.11111 7.33355 1.11111H12.6669C17.1113 1.11111 18.8891 2.88889 18.8891 7.33334V12.6667C18.8891 17.1111 17.1113 18.8889 12.6669 18.8889Z" stroke="white" stroke-width="1.5" stroke-linecap="round" stroke-linejoin="round"/>
</svg>
