<svg width="30" height="33" viewBox="0 0 30 33" fill="none" xmlns="http://www.w3.org/2000/svg">
<path opacity="0.2" d="M28.75 5.5V11.75H1.25V5.5C1.25 5.16848 1.3817 4.85054 1.61612 4.61612C1.85054 4.3817 2.16848 4.25 2.5 4.25H27.5C27.8315 4.25 28.1495 4.3817 28.3839 4.61612C28.6183 4.85054 28.75 5.16848 28.75 5.5Z" fill="#FF0000"/>
<path d="M27.5 3H23.75V1.75C23.75 1.41848 23.6183 1.10054 23.3839 0.866116C23.1495 0.631696 22.8315 0.5 22.5 0.5C22.1685 0.5 21.8505 0.631696 21.6161 0.866116C21.3817 1.10054 21.25 1.41848 21.25 1.75V3H8.75V1.75C8.75 1.41848 8.6183 1.10054 8.38388 0.866116C8.14946 0.631696 7.83152 0.5 7.5 0.5C7.16848 0.5 6.85054 0.631696 6.61612 0.866116C6.3817 1.10054 6.25 1.41848 6.25 1.75V3H2.5C1.83696 3 1.20107 3.26339 0.732233 3.73223C0.263392 4.20107 0 4.83696 0 5.5V30.5C0 31.163 0.263392 31.7989 0.732233 32.2678C1.20107 32.7366 1.83696 33 2.5 33H27.5C28.163 33 28.7989 32.7366 29.2678 32.2678C29.7366 31.7989 30 31.163 30 30.5V5.5C30 4.83696 29.7366 4.20107 29.2678 3.73223C28.7989 3.26339 28.163 3 27.5 3ZM6.25 5.5V6.75C6.25 7.08152 6.3817 7.39946 6.61612 7.63388C6.85054 7.8683 7.16848 8 7.5 8C7.83152 8 8.14946 7.8683 8.38388 7.63388C8.6183 7.39946 8.75 7.08152 8.75 6.75V5.5H21.25V6.75C21.25 7.08152 21.3817 7.39946 21.6161 7.63388C21.8505 7.8683 22.1685 8 22.5 8C22.8315 8 23.1495 7.8683 23.3839 7.63388C23.6183 7.39946 23.75 7.08152 23.75 6.75V5.5H27.5V10.5H2.5V5.5H6.25ZM27.5 30.5H2.5V13H27.5V30.5ZM12.5 16.75V26.75C12.5 27.0815 12.3683 27.3995 12.1339 27.6339C11.8995 27.8683 11.5815 28 11.25 28C10.9185 28 10.6005 27.8683 10.3661 27.6339C10.1317 27.3995 10 27.0815 10 26.75V18.7719L9.30938 19.1188C9.01266 19.2671 8.66917 19.2915 8.35446 19.1866C8.03975 19.0817 7.7796 18.8561 7.63125 18.5594C7.48289 18.2627 7.45848 17.9192 7.56339 17.6045C7.66829 17.2898 7.89391 17.0296 8.19062 16.8812L10.6906 15.6312C10.8813 15.5359 11.0931 15.4908 11.3061 15.5004C11.5191 15.5099 11.7261 15.5738 11.9074 15.6859C12.0887 15.798 12.2383 15.9547 12.3421 16.1409C12.4458 16.3271 12.5002 16.5368 12.5 16.75ZM21.7438 21.5078L18.75 25.5H21.25C21.5815 25.5 21.8995 25.6317 22.1339 25.8661C22.3683 26.1005 22.5 26.4185 22.5 26.75C22.5 27.0815 22.3683 27.3995 22.1339 27.6339C21.8995 27.8683 21.5815 28 21.25 28H16.25C16.0179 28 15.7903 27.9354 15.5928 27.8133C15.3954 27.6913 15.2358 27.5166 15.132 27.309C15.0282 27.1014 14.9842 26.8689 15.005 26.6377C15.0259 26.4065 15.1107 26.1857 15.25 26L19.7469 20.0047C19.8492 19.8685 19.9225 19.7129 19.9625 19.5473C20.0025 19.3818 20.0082 19.2098 19.9793 19.042C19.9504 18.8741 19.8876 18.714 19.7946 18.5713C19.7016 18.4286 19.5804 18.3065 19.4385 18.2123C19.2965 18.1182 19.1369 18.054 18.9693 18.0238C18.8017 17.9936 18.6297 17.9979 18.4638 18.0366C18.2979 18.0752 18.1417 18.1473 18.0047 18.2485C17.8677 18.3497 17.7529 18.4778 17.6672 18.625C17.5875 18.7717 17.4793 18.9009 17.3489 19.0051C17.2185 19.1093 17.0685 19.1863 16.9078 19.2316C16.7472 19.2769 16.5791 19.2896 16.4135 19.2688C16.2478 19.2481 16.088 19.1944 15.9435 19.1109C15.7989 19.0274 15.6726 18.9158 15.5719 18.7827C15.4711 18.6496 15.3981 18.4977 15.3571 18.3359C15.316 18.1741 15.3078 18.0057 15.3329 17.8407C15.358 17.6756 15.4159 17.5173 15.5031 17.375C15.916 16.6604 16.5531 16.1021 17.3156 15.7864C18.0782 15.4707 18.9235 15.4154 19.7207 15.6291C20.5178 15.8427 21.2222 16.3133 21.7247 16.9679C22.2272 17.6226 22.4997 18.4247 22.5 19.25C22.5027 20.0652 22.2369 20.8587 21.7438 21.5078Z" fill="#FF0000"/>
</svg>
