<svg width="20" height="21" viewBox="0 0 20 21" fill="none" xmlns="http://www.w3.org/2000/svg">
<path d="M14.9267 3.40787L16.8329 5.52491M16.1525 1.54284L10.9981 7.26994C10.7318 7.56544 10.5502 7.94193 10.4761 8.35196L10 11L12.3832 10.47C12.7522 10.388 13.0907 10.187 13.3571 9.89098L18.5114 4.16388C18.6663 3.99178 18.7892 3.78747 18.873 3.56261C18.9569 3.33775 19 3.09675 19 2.85336C19 2.60997 18.9569 2.36897 18.873 2.14411C18.7892 1.91925 18.6663 1.71494 18.5114 1.54284C18.3566 1.37074 18.1727 1.23422 17.9703 1.14108C17.7679 1.04794 17.551 1 17.332 1C17.1129 1 16.896 1.04794 16.6937 1.14108C16.4913 1.23422 16.3074 1.37074 16.1525 1.54284V1.54284Z" stroke="#FEFFFF" stroke-width="2" stroke-linecap="round" stroke-linejoin="round"/>
<path d="M16.3 14.6667V17.8667C16.3 18.4325 16.0851 18.9751 15.7025 19.3752C15.3199 19.7752 14.801 20 14.26 20H3.04C2.49896 20 1.98008 19.7752 1.5975 19.3752C1.21493 18.9751 1 18.4325 1 17.8667V6.13333C1 5.56754 1.21493 5.02492 1.5975 4.62484C1.98008 4.22476 2.49896 4 3.04 4H6.1" stroke="#FEFFFF" stroke-width="2" stroke-linecap="round" stroke-linejoin="round"/>
</svg>
