<svg width="27" height="27" viewBox="0 0 27 27" fill="none" xmlns="http://www.w3.org/2000/svg">
<path fill-rule="evenodd" clip-rule="evenodd" d="M5.87196 0.493687C10.9412 -0.0682081 16.0569 -0.0682081 21.1261 0.493687C23.8955 0.802854 26.1282 2.98306 26.4534 5.76265C27.0546 10.9028 27.0546 16.0954 26.4534 21.2356C26.1282 24.0151 23.8955 26.1954 21.1276 26.506C16.0579 27.068 10.9416 27.068 5.87196 26.506C3.10259 26.1954 0.869881 24.0151 0.544673 21.237C-0.0565575 16.0964 -0.0565575 10.9033 0.544673 5.76265C0.869881 2.98306 3.10259 0.802854 5.87196 0.493687ZM20.7907 4.7491C20.4039 4.7491 20.033 4.90275 19.7595 5.17624C19.486 5.44973 19.3324 5.82066 19.3324 6.20744C19.3324 6.59421 19.486 6.96514 19.7595 7.23863C20.033 7.51212 20.4039 7.66577 20.7907 7.66577C21.1775 7.66577 21.5484 7.51212 21.8219 7.23863C22.0954 6.96514 22.249 6.59421 22.249 6.20744C22.249 5.82066 22.0954 5.44973 21.8219 5.17624C21.5484 4.90275 21.1775 4.7491 20.7907 4.7491ZM6.57196 13.4991C6.57196 11.6619 7.30178 9.9 8.60086 8.60092C9.89994 7.30184 11.6619 6.57202 13.499 6.57202C15.3362 6.57202 17.0982 7.30184 18.3972 8.60092C19.6963 9.9 20.4261 11.6619 20.4261 13.4991C20.4261 15.3363 19.6963 17.0982 18.3972 18.3973C17.0982 19.6964 15.3362 20.4262 13.499 20.4262C11.6619 20.4262 9.89994 19.6964 8.60086 18.3973C7.30178 17.0982 6.57196 15.3363 6.57196 13.4991Z" fill="white" fill-opacity="0.7"/>
</svg>
