<svg width="90" height="38" viewBox="0 0 90 38" fill="none" xmlns="http://www.w3.org/2000/svg">
<path d="M0.52 29V0.639998H7.68V29H0.52ZM6.2 29V22.84H19.88V29H6.2ZM32.2191 29.44C30.1124 29.44 28.2324 29 26.5791 28.12C24.9524 27.2133 23.6591 25.9867 22.6991 24.44C21.7391 22.8667 21.2591 21.1067 21.2591 19.16C21.2591 17.2133 21.7257 15.48 22.6591 13.96C23.6191 12.4133 24.9257 11.2 26.5791 10.32C28.2324 9.41333 30.0991 8.96 32.1791 8.96C34.2591 8.96 36.1124 9.41333 37.7391 10.32C39.3924 11.2 40.6991 12.4133 41.6591 13.96C42.6191 15.48 43.0991 17.2133 43.0991 19.16C43.0991 21.1067 42.6191 22.8667 41.6591 24.44C40.7257 25.9867 39.4324 27.2133 37.7791 28.12C36.1524 29 34.2991 29.44 32.2191 29.44ZM32.1791 23.24C32.9524 23.24 33.6191 23.08 34.1791 22.76C34.7657 22.4133 35.2191 21.9333 35.5391 21.32C35.8591 20.7067 36.0191 20 36.0191 19.2C36.0191 18.4 35.8457 17.7067 35.4991 17.12C35.1791 16.5067 34.7391 16.04 34.1791 15.72C33.6191 15.3733 32.9524 15.2 32.1791 15.2C31.4324 15.2 30.7657 15.3733 30.1791 15.72C29.5924 16.0667 29.1391 16.5467 28.8191 17.16C28.4991 17.7467 28.3391 18.44 28.3391 19.24C28.3391 20.0133 28.4991 20.7067 28.8191 21.32C29.1391 21.9333 29.5924 22.4133 30.1791 22.76C30.7657 23.08 31.4324 23.24 32.1791 23.24ZM54.1803 37.88C52.0203 37.88 50.1003 37.5067 48.4203 36.76C46.767 36.04 45.4736 35.0133 44.5403 33.68L48.7403 29.52C49.407 30.24 50.1403 30.8 50.9403 31.2C51.7403 31.6267 52.7136 31.84 53.8603 31.84C55.247 31.84 56.3403 31.4933 57.1403 30.8C57.967 30.1333 58.3803 29.16 58.3803 27.88V22.8L59.5003 18.56L58.5003 14.36V9.44H65.3403V27.64C65.3403 29.72 64.847 31.52 63.8603 33.04C62.9003 34.5867 61.5803 35.7733 59.9003 36.6C58.2203 37.4533 56.3136 37.88 54.1803 37.88ZM53.8603 28.28C52.047 28.28 50.4336 27.8667 49.0203 27.04C47.6336 26.1867 46.5403 25.0267 45.7403 23.56C44.9403 22.0933 44.5403 20.4533 44.5403 18.64C44.5403 16.8267 44.9403 15.2 45.7403 13.76C46.5403 12.32 47.6336 11.1733 49.0203 10.32C50.4336 9.46667 52.047 9.04 53.8603 9.04C55.087 9.04 56.207 9.26667 57.2203 9.72C58.2603 10.1467 59.1003 10.76 59.7403 11.56C60.3803 12.3333 60.7803 13.24 60.9403 14.28V23.04C60.7803 24.08 60.367 25 59.7003 25.8C59.0603 26.5733 58.2336 27.1867 57.2203 27.64C56.207 28.0667 55.087 28.28 53.8603 28.28ZM55.1403 22.24C55.887 22.24 56.527 22.08 57.0603 21.76C57.6203 21.4133 58.047 20.9733 58.3403 20.44C58.6336 19.88 58.7803 19.28 58.7803 18.64C58.7803 17.9733 58.6336 17.3733 58.3403 16.84C58.047 16.3067 57.6336 15.88 57.1003 15.56C56.567 15.2133 55.927 15.04 55.1803 15.04C54.4603 15.04 53.8203 15.2133 53.2603 15.56C52.727 15.88 52.3136 16.32 52.0203 16.88C51.727 17.4133 51.5803 18 51.5803 18.64C51.5803 19.2533 51.727 19.84 52.0203 20.4C52.3136 20.9333 52.727 21.3733 53.2603 21.72C53.7936 22.0667 54.4203 22.24 55.1403 22.24ZM79.0159 29.44C76.9093 29.44 75.0293 29 73.3759 28.12C71.7493 27.2133 70.4559 25.9867 69.4959 24.44C68.5359 22.8667 68.0559 21.1067 68.0559 19.16C68.0559 17.2133 68.5226 15.48 69.4559 13.96C70.4159 12.4133 71.7226 11.2 73.3759 10.32C75.0293 9.41333 76.8959 8.96 78.9759 8.96C81.0559 8.96 82.9093 9.41333 84.5359 10.32C86.1893 11.2 87.4959 12.4133 88.4559 13.96C89.4159 15.48 89.8959 17.2133 89.8959 19.16C89.8959 21.1067 89.4159 22.8667 88.4559 24.44C87.5226 25.9867 86.2293 27.2133 84.5759 28.12C82.9493 29 81.0959 29.44 79.0159 29.44ZM78.9759 23.24C79.7493 23.24 80.4159 23.08 80.9759 22.76C81.5626 22.4133 82.0159 21.9333 82.3359 21.32C82.6559 20.7067 82.8159 20 82.8159 19.2C82.8159 18.4 82.6426 17.7067 82.2959 17.12C81.9759 16.5067 81.5359 16.04 80.9759 15.72C80.4159 15.3733 79.7493 15.2 78.9759 15.2C78.2293 15.2 77.5626 15.3733 76.9759 15.72C76.3893 16.0667 75.9359 16.5467 75.6159 17.16C75.2959 17.7467 75.1359 18.44 75.1359 19.24C75.1359 20.0133 75.2959 20.7067 75.6159 21.32C75.9359 21.9333 76.3893 22.4133 76.9759 22.76C77.5626 23.08 78.2293 23.24 78.9759 23.24Z" fill="#CA0610"/>
</svg>
