<svg width="21" height="20" viewBox="0 0 21 20" fill="none" xmlns="http://www.w3.org/2000/svg">
<path d="M2.625 8.30243C2.625 7.39884 3.3575 6.66634 4.26109 6.66634V6.66634C4.86914 6.66634 5.42704 6.32913 5.70968 5.79076L6.41667 4.44412C6.45999 4.3616 6.48165 4.32034 6.50353 4.28289C6.83159 3.7213 7.42207 3.36439 8.0718 3.33497C8.11513 3.33301 8.16173 3.33301 8.25493 3.33301H12.7451C12.8383 3.33301 12.8849 3.33301 12.9282 3.33497C13.5779 3.36439 14.1684 3.7213 14.4965 4.28289C14.5183 4.32034 14.54 4.3616 14.5833 4.44412L15.2903 5.79076C15.573 6.32913 16.1309 6.66634 16.7389 6.66634V6.66634C17.6425 6.66634 18.375 7.39884 18.375 8.30243V12.3806C18.375 13.6951 18.375 14.3523 18.1641 14.8721C17.872 15.5922 17.3008 16.1634 16.5807 16.4555C16.0609 16.6663 15.4037 16.6663 14.0893 16.6663H6.91072C5.59627 16.6663 4.93905 16.6663 4.41925 16.4555C3.69916 16.1634 3.12798 15.5922 2.83587 14.8721C2.625 14.3523 2.625 13.6951 2.625 12.3806V8.30243Z" stroke="black" stroke-width="1.91667"/>
<ellipse cx="10.498" cy="10.8333" rx="3.5" ry="3.33333" fill="#FE0404" fill-opacity="0.9"/>
<path d="M13.0397 10.8333C13.0397 12.1015 11.9464 13.2083 10.498 13.2083C9.04972 13.2083 7.95638 12.1015 7.95638 10.8333C7.95638 9.56518 9.04972 8.45833 10.498 8.45833C11.9464 8.45833 13.0397 9.56518 13.0397 10.8333Z" stroke="#FE0404" stroke-opacity="0.9" stroke-width="1.91667"/>
</svg>
