<svg width="102.000000" height="44.000000" viewBox="0 0 102 44" fill="none" xmlns="http://www.w3.org/2000/svg" xmlns:xlink="http://www.w3.org/1999/xlink">
	<desc>
			Created with Pixso.
	</desc>
	<defs/>
	<path id="Vector" d="M14.5 0.03C14.44 0.04 14.37 0.06 14.35 0.08C14.32 0.11 14.22 0.15 14.13 0.18C14.03 0.22 13.85 0.32 13.72 0.4C13.59 0.49 13.46 0.56 13.42 0.56C13.33 0.56 12.55 1.36 12.51 1.49C12.5 1.55 12.42 1.66 12.34 1.75C12.19 1.91 11.97 2.29 11.97 2.39C11.97 2.5 11.76 2.86 11.64 2.97C11.48 3.13 11.36 3.37 11.4 3.5C11.42 3.6 11.45 3.61 11.66 3.62C12.12 3.64 12.84 3.73 13.04 3.79C13.33 3.87 14.73 3.87 14.99 3.79C15.09 3.75 15.26 3.71 15.35 3.7C15.45 3.68 15.66 3.63 15.83 3.58C16.07 3.51 16.13 3.47 16.19 3.36C16.3 3.15 16.27 3.14 15.52 2.95C15.37 2.92 15.14 2.84 15.01 2.78C14.67 2.62 14.25 2.5 13.92 2.46C13.59 2.43 13.49 2.36 13.59 2.24C13.63 2.2 13.7 2.1 13.74 2.01C13.78 1.93 13.89 1.76 13.99 1.64C14.09 1.51 14.27 1.26 14.38 1.08C14.54 0.82 14.64 0.71 14.85 0.57C15 0.47 15.15 0.39 15.18 0.39C15.25 0.39 15.51 0.18 15.51 0.13C15.51 0.02 14.89 -0.05 14.5 0.03ZM28.67 0.04C28.62 0.06 28.57 0.09 28.57 0.12C28.57 0.18 28.74 0.31 28.96 0.41C29.27 0.55 29.72 1.03 29.88 1.36C29.95 1.51 30.08 1.71 30.18 1.81C30.28 1.91 30.37 2.01 30.37 2.05C30.37 2.09 30.4 2.17 30.44 2.22C30.53 2.36 30.48 2.4 30.1 2.45C29.66 2.5 29.37 2.58 29.18 2.67C28.99 2.78 28.7 2.88 28.38 2.96C27.89 3.08 27.83 3.1 27.83 3.21C27.83 3.42 28.24 3.63 28.75 3.69C28.89 3.7 29.07 3.75 29.16 3.78C29.27 3.83 29.49 3.85 30.02 3.85C30.7 3.85 30.83 3.83 31.26 3.72C31.35 3.7 31.7 3.67 32.04 3.65C32.6 3.62 32.65 3.61 32.68 3.53C32.72 3.42 32.66 3.28 32.47 3.06C32.4 2.98 32.3 2.82 32.26 2.71C32.17 2.46 32.02 2.19 31.78 1.86C31.67 1.71 31.59 1.56 31.59 1.52C31.59 1.48 31.47 1.33 31.32 1.19C31.16 1.04 31 0.87 30.96 0.8C30.91 0.74 30.79 0.64 30.68 0.59C30.57 0.55 30.41 0.46 30.34 0.41C30.27 0.35 30.08 0.25 29.91 0.17C29.66 0.05 29.55 0.03 29.19 0.01C28.96 0 28.73 0.01 28.67 0.04ZM25.3 0.08C25.06 0.13 24.64 0.34 24.58 0.44C24.52 0.54 24.9 1.02 25.14 1.14C25.24 1.19 25.38 1.27 25.45 1.33C25.9 1.67 26.67 1.86 27.37 1.82C27.61 1.8 27.93 1.75 28.07 1.71C28.31 1.64 28.33 1.62 28.35 1.5C28.36 1.39 28.3 1.32 27.99 0.99C27.78 0.78 27.59 0.61 27.55 0.61C27.48 0.61 26.92 0.39 26.72 0.28C26.64 0.24 26.56 0.21 26.52 0.21C26.48 0.21 26.3 0.17 26.1 0.12C25.73 0.03 25.6 0.03 25.3 0.08ZM17.71 0.17C17.55 0.21 17.27 0.3 17.1 0.37C16.93 0.43 16.71 0.52 16.6 0.56C16.37 0.64 15.75 1.21 15.69 1.4C15.62 1.58 15.71 1.65 16.11 1.75C16.54 1.85 17.01 1.86 17.42 1.77C17.58 1.74 17.79 1.7 17.87 1.68C17.96 1.67 18.08 1.62 18.14 1.58C18.19 1.53 18.29 1.48 18.35 1.46C18.45 1.42 18.71 1.27 19.02 1.07C19.19 0.95 19.39 0.66 19.4 0.52C19.4 0.15 18.5 -0.03 17.71 0.17ZM33.04 1.91C32.95 1.94 32.98 2.14 33.08 2.23C33.14 2.28 33.25 2.35 33.32 2.38C33.4 2.41 33.5 2.5 33.54 2.58C33.58 2.66 33.69 2.82 33.8 2.93C33.94 3.08 34.01 3.21 34.1 3.49C34.16 3.69 34.21 3.88 34.21 3.9C34.21 3.93 34.32 4.18 34.46 4.45C34.75 5.03 34.75 5.1 34.44 5C34.16 4.92 32.83 4.95 32.45 5.05C32.31 5.09 32.06 5.12 31.88 5.12C31.5 5.12 31.37 5.15 31.37 5.24C31.37 5.32 31.89 5.87 31.96 5.87C31.99 5.87 32.04 5.89 32.07 5.93C32.09 5.96 32.24 6.03 32.39 6.09C32.54 6.14 32.88 6.27 33.15 6.37C33.76 6.62 34.01 6.65 35.24 6.7C35.79 6.72 36.34 6.75 36.45 6.77C36.78 6.81 36.81 6.76 36.66 6.34C36.58 6.14 36.53 5.92 36.53 5.86C36.53 5.79 36.49 5.64 36.44 5.52C36.39 5.39 36.35 5.26 36.35 5.22C36.35 5.18 36.29 5.02 36.22 4.87C36.15 4.71 36.03 4.41 35.96 4.19C35.86 3.91 35.78 3.74 35.68 3.63C35.6 3.55 35.47 3.38 35.4 3.26C35.24 2.99 34.66 2.46 34.46 2.4C34.38 2.37 34.24 2.29 34.15 2.23C33.78 1.98 33.25 1.82 33.04 1.91ZM10.49 2.01C10.33 2.06 10.18 2.12 10.14 2.16C10.1 2.2 9.94 2.28 9.78 2.36C9.63 2.43 9.41 2.57 9.3 2.67C9.19 2.77 9.06 2.88 9.01 2.91C8.96 2.95 8.84 3.09 8.75 3.23C8.66 3.36 8.52 3.54 8.45 3.63C8.37 3.71 8.27 3.9 8.22 4.05C8.11 4.33 8.08 4.4 7.86 4.87C7.78 5.04 7.69 5.35 7.64 5.61C7.57 6.01 7.46 6.37 7.33 6.62C7.27 6.74 7.41 6.84 7.57 6.81C7.65 6.8 8.12 6.77 8.63 6.75C9.45 6.71 10 6.66 10.37 6.59C10.56 6.55 11.14 6.35 11.25 6.28C11.3 6.25 11.46 6.18 11.62 6.13C12.13 5.95 12.68 5.51 12.66 5.3C12.65 5.19 12.64 5.19 12.12 5.16C11.83 5.14 11.48 5.09 11.33 5.05C10.96 4.94 9.87 4.94 9.66 5.04C9.35 5.2 9.36 5.05 9.69 4.36C9.83 4.07 9.99 3.67 10.05 3.47C10.1 3.26 10.18 3.06 10.24 3.01C10.29 2.95 10.42 2.81 10.52 2.68C10.62 2.55 10.79 2.41 10.89 2.35C11.14 2.21 11.19 2.11 11.06 2.01C10.93 1.9 10.85 1.9 10.49 2.01ZM6.1 5.21C5.96 5.25 5.28 5.69 5.28 5.74C5.28 5.76 5.17 5.92 5.03 6.09C4.69 6.52 4.56 6.73 4.5 6.97C4.47 7.07 4.42 7.2 4.39 7.25C4.06 7.78 3.9 9.33 4.08 10.31C4.11 10.52 4.15 10.93 4.15 11.2C4.15 11.92 4.2 11.99 4.61 11.72C5.21 11.32 5.33 11.26 5.68 11.13C5.88 11.06 6.1 11 6.16 11C6.21 11 6.3 10.96 6.35 10.91C6.43 10.84 6.69 10.69 7.12 10.46C7.2 10.42 7.29 10.38 7.32 10.38C7.35 10.38 7.47 10.28 7.6 10.16C7.73 10.04 7.89 9.92 7.96 9.89C8.09 9.82 8.87 9.08 8.87 9.02C8.87 9 8.98 8.84 9.13 8.66C9.35 8.39 9.39 8.32 9.39 8.16C9.39 8.02 9.37 7.98 9.31 7.96C9.23 7.94 8.53 8.1 8.44 8.16C8.42 8.17 8.26 8.22 8.1 8.27C7.93 8.32 7.59 8.41 7.34 8.49C7.08 8.56 6.81 8.63 6.72 8.65C6.63 8.66 6.53 8.7 6.5 8.74C6.48 8.77 6.43 8.8 6.41 8.8C6.39 8.8 6.27 8.88 6.14 8.98C6.01 9.08 5.89 9.15 5.86 9.15C5.74 9.15 5.73 9.01 5.77 7.69L5.8 6.34L5.98 5.99C6.08 5.79 6.2 5.58 6.25 5.52C6.41 5.32 6.32 5.15 6.1 5.21ZM37.75 5.32C37.75 5.38 37.85 5.65 37.97 5.91C38.09 6.17 38.19 6.42 38.19 6.46C38.19 6.51 38.22 6.68 38.25 6.84C38.3 7.09 38.31 7.24 38.27 7.65C38.23 8.08 38.23 8.21 38.29 8.58C38.38 9.1 38.36 9.22 38.19 9.18C38.13 9.16 38.01 9.09 37.92 9.02C37.69 8.82 37.39 8.69 36.79 8.52C36.49 8.43 36.08 8.31 35.87 8.25C35.39 8.1 34.91 7.97 34.82 7.97C34.72 7.97 34.68 8.08 34.72 8.31C34.74 8.47 34.82 8.6 35.12 8.97C35.55 9.51 35.6 9.57 35.89 9.77C36.01 9.85 36.25 10.03 36.41 10.15C36.57 10.28 36.78 10.41 36.88 10.45C36.99 10.49 37.13 10.56 37.2 10.62C37.4 10.77 37.84 10.98 38.08 11.04C38.4 11.12 38.98 11.39 39.14 11.52C39.26 11.63 39.63 11.83 39.72 11.83C39.8 11.83 39.85 11.56 39.85 11.09C39.85 10.81 39.88 10.38 39.91 10.14C40.01 9.47 40 8.74 39.87 8.17C39.81 7.9 39.72 7.53 39.68 7.33C39.59 6.96 39.54 6.83 39.44 6.75C39.41 6.72 39.3 6.57 39.21 6.41C39.02 6.09 38.48 5.5 38.19 5.32C38.09 5.26 37.95 5.21 37.88 5.21C37.77 5.21 37.75 5.23 37.75 5.32ZM19.75 7.47C19.66 7.48 19.35 7.51 19.05 7.54C18.75 7.56 18.44 7.6 18.37 7.62C18.29 7.65 18.08 7.69 17.91 7.73C17.73 7.76 17.5 7.81 17.41 7.83C17.31 7.86 17.04 7.92 16.8 7.97C16.36 8.07 16.26 8.1 15.73 8.36C15.57 8.43 15.34 8.53 15.22 8.58C14.97 8.68 14.47 8.95 14.35 9.07C14.3 9.11 14.18 9.19 14.07 9.24C13.97 9.29 13.83 9.4 13.75 9.48C13.68 9.56 13.52 9.7 13.39 9.79C13.25 9.88 13.12 10 13.08 10.08C13.05 10.14 12.93 10.28 12.82 10.37C12.71 10.46 12.58 10.62 12.53 10.73C12.48 10.84 12.4 10.96 12.36 11C12.19 11.16 12.06 11.38 11.95 11.67C11.89 11.84 11.78 12.1 11.71 12.24C11.53 12.63 11.41 12.96 11.36 13.25C11.27 13.72 11.22 14.85 11.25 15.64C11.3 16.83 11.37 17.2 11.68 17.86C11.81 18.12 11.94 18.42 11.97 18.52C12 18.63 12.05 18.73 12.08 18.76C12.12 18.79 12.14 18.83 12.14 18.87C12.14 18.9 12.21 18.99 12.3 19.07C12.39 19.15 12.5 19.29 12.54 19.39C12.58 19.49 12.68 19.63 12.75 19.7C13 19.93 13.08 20.01 13.16 20.13C13.21 20.19 13.32 20.3 13.42 20.36C13.52 20.42 13.67 20.55 13.76 20.64C13.84 20.74 14.02 20.87 14.15 20.94C14.29 21 14.57 21.16 14.78 21.29C15 21.41 15.25 21.54 15.35 21.56C15.45 21.59 15.58 21.64 15.65 21.67C15.71 21.71 15.79 21.73 15.82 21.73C15.85 21.73 15.96 21.78 16.06 21.82C16.37 21.99 16.74 22.09 17.4 22.2C17.77 22.25 18.29 22.34 18.57 22.39C19.92 22.62 20.67 22.69 22.91 22.74C25.78 22.81 26.04 22.84 27 23.17C27.25 23.25 27.57 23.35 27.7 23.38C28.03 23.46 28.33 23.6 28.52 23.76C28.6 23.84 28.77 23.95 28.9 24.01C29.02 24.08 29.16 24.19 29.22 24.28C29.27 24.36 29.4 24.52 29.5 24.63C29.73 24.87 29.76 24.94 29.9 25.63C30.02 26.19 30.04 26.51 29.97 26.88C29.79 27.88 29.71 28.13 29.47 28.35C29.4 28.41 29.29 28.56 29.21 28.68C29.11 28.84 29 28.94 28.83 29.03C28.7 29.09 28.44 29.26 28.25 29.39C28.06 29.52 27.83 29.63 27.75 29.65C27.66 29.67 27.47 29.75 27.33 29.85C27.18 29.94 27.03 30.02 27 30.02C26.96 30.02 26.88 30.06 26.8 30.11C26.73 30.15 26.64 30.19 26.59 30.19C26.55 30.19 26.46 30.22 26.4 30.26C26.15 30.39 24.68 30.59 23.75 30.62C23.21 30.64 22.84 30.62 22.16 30.55C21.67 30.5 21.25 30.45 21.24 30.44C21.22 30.43 21.02 30.4 20.79 30.37C20.41 30.33 19.29 30 19.16 29.89C19.1 29.84 18.81 29.73 18.45 29.63C18.3 29.59 18.11 29.49 18.01 29.42C17.92 29.35 17.67 29.21 17.46 29.1C17.25 28.99 17 28.83 16.91 28.74C16.83 28.66 16.66 28.53 16.56 28.46C16.39 28.36 15.95 27.98 15.67 27.71C15.26 27.31 14.9 26.9 14.9 26.84C14.9 26.81 14.81 26.71 14.7 26.62C14.59 26.53 14.46 26.36 14.41 26.25C14.35 26.14 14.24 25.96 14.15 25.85C13.93 25.54 13.78 25.28 13.72 25.1C13.69 25.01 13.62 24.87 13.57 24.79C13.34 24.45 13.26 24.25 13.11 23.69C12.96 23.15 12.86 22.9 12.75 22.84C12.69 22.81 12.5 22.79 12.33 22.79C12.06 22.79 12.01 22.8 11.97 22.87C11.94 22.93 11.92 24.24 11.92 26.81C11.92 31.23 11.87 30.76 12.37 30.76C12.65 30.76 12.84 30.69 12.84 30.58C12.84 30.55 12.89 30.43 12.95 30.3C13.01 30.18 13.07 30.03 13.08 29.97C13.13 29.74 13.38 29.54 13.81 29.39C14.08 29.29 14.17 29.3 14.69 29.47C14.94 29.56 15.18 29.62 15.22 29.62C15.3 29.62 15.8 29.84 16.32 30.09C16.61 30.23 16.78 30.29 17.56 30.52C17.67 30.55 17.91 30.65 18.1 30.74C18.3 30.83 18.61 30.93 18.88 30.99C19.13 31.04 19.46 31.11 19.62 31.16C21.19 31.61 21.13 31.6 23.11 31.6C24.01 31.6 24.89 31.58 25.06 31.56C25.68 31.47 25.98 31.41 26.23 31.33C26.36 31.28 26.51 31.25 26.55 31.25C26.59 31.25 26.75 31.21 26.89 31.16C27.04 31.12 27.33 31.04 27.55 30.99C27.9 30.9 28.33 30.73 28.49 30.61C28.52 30.58 28.69 30.5 28.86 30.44C29.03 30.37 29.19 30.29 29.23 30.26C29.26 30.24 29.34 30.19 29.4 30.16C29.46 30.14 29.62 30.02 29.75 29.91C29.88 29.8 30.06 29.67 30.14 29.63C30.23 29.58 30.38 29.46 30.47 29.36C30.57 29.26 30.72 29.13 30.81 29.07C30.9 29.02 31.01 28.92 31.05 28.85C31.09 28.79 31.24 28.62 31.36 28.49C31.49 28.35 31.62 28.19 31.66 28.13C31.69 28.07 31.79 27.93 31.9 27.81C32 27.7 32.2 27.37 32.34 27.09C32.48 26.81 32.62 26.55 32.66 26.51C32.74 26.42 32.9 25.85 32.9 25.65C32.9 25.56 32.93 25.4 32.97 25.31C33.08 24.99 33.13 24.34 33.1 23.49C33.09 23.04 33.06 22.6 33.03 22.5C33 22.41 32.96 22.2 32.94 22.04C32.85 21.44 32.72 20.98 32.56 20.63C32.46 20.43 32.32 20.12 32.25 19.94C32.17 19.76 32 19.47 31.87 19.3C31.74 19.13 31.61 18.95 31.59 18.91C31.52 18.77 30.79 18.03 30.64 17.95C30.57 17.91 30.4 17.79 30.27 17.68C30.01 17.46 29.65 17.24 29.46 17.19C29.4 17.18 29.26 17.1 29.15 17.02C29.05 16.93 28.94 16.87 28.91 16.87C28.88 16.87 28.76 16.82 28.64 16.76C28.52 16.7 28.38 16.65 28.33 16.65C28.29 16.65 28.01 16.58 27.72 16.49C26.74 16.2 26.31 16.13 25.39 16.08C24.92 16.06 24.38 16.03 24.2 16.01C24.02 16 22.95 15.97 21.82 15.95C19.95 15.92 19.7 15.9 19.05 15.8C18.65 15.74 18.29 15.68 18.24 15.67C17.87 15.58 17.14 15.42 16.89 15.38C16.59 15.32 16.25 15.2 16.13 15.1C16.05 15.04 15.63 14.87 15.37 14.79C15.26 14.75 15.05 14.62 14.89 14.5C14.74 14.38 14.56 14.25 14.5 14.2C14.36 14.09 14.01 13.57 13.87 13.28C13.79 13.1 13.78 13 13.79 12.44C13.79 11.85 13.8 11.79 13.9 11.63C14.08 11.32 14.52 10.72 14.65 10.6C14.72 10.54 14.91 10.36 15.09 10.21C15.26 10.04 15.54 9.85 15.71 9.77C15.87 9.69 16.08 9.57 16.17 9.5C16.34 9.36 16.84 9.16 17 9.15C17.06 9.15 17.18 9.12 17.28 9.08C17.68 8.93 18.4 8.76 19 8.67C19.35 8.62 21.47 8.62 21.78 8.67C21.9 8.69 22.17 8.73 22.39 8.76C22.77 8.81 22.86 8.83 23.37 8.96C24.11 9.14 24.61 9.29 24.71 9.35C24.78 9.39 24.98 9.5 25.14 9.59C25.31 9.69 25.56 9.81 25.69 9.86C25.82 9.91 26.01 10.03 26.1 10.12C26.2 10.21 26.37 10.34 26.48 10.39C26.59 10.45 26.79 10.59 26.92 10.71C27.06 10.83 27.24 10.99 27.33 11.06C27.61 11.28 28.32 12 28.62 12.38C28.77 12.57 28.96 12.8 29.04 12.89C29.12 12.98 29.22 13.14 29.26 13.23C29.29 13.33 29.38 13.45 29.45 13.51C29.56 13.6 30.02 14.36 30.02 14.45C30.02 14.47 30.08 14.58 30.16 14.68C30.24 14.79 30.32 14.92 30.34 14.98C30.36 15.04 30.43 15.27 30.5 15.48C30.62 15.82 30.65 15.86 30.77 15.9C30.85 15.93 30.99 15.93 31.11 15.91L31.31 15.88L31.32 12.18C31.33 8.79 31.32 8.48 31.25 8.4C31.2 8.34 31.12 8.32 30.87 8.32C30.5 8.32 30.44 8.37 30.37 8.69C30.31 8.94 30.17 9.16 29.89 9.43C29.63 9.69 29.5 9.73 29.1 9.73C28.76 9.74 28.73 9.73 27.98 9.37C27.84 9.3 27.63 9.23 27.52 9.2C27.42 9.17 27.3 9.12 27.26 9.09C27.23 9.06 27.13 9 27.04 8.96C26.96 8.93 26.78 8.83 26.65 8.76C26.52 8.69 26.38 8.63 26.34 8.63C26.31 8.63 26.08 8.56 25.84 8.47C25.6 8.38 25.31 8.28 25.19 8.25C25.07 8.21 24.95 8.16 24.92 8.14C24.86 8.1 24.37 8 23.88 7.93C23.71 7.9 23.42 7.85 23.24 7.8C22.25 7.54 20.63 7.39 19.75 7.47ZM2.36 10.58C2.27 10.66 2.17 10.79 2.16 10.85C2.14 10.91 2.09 11.01 2.05 11.07C2 11.13 1.96 11.21 1.96 11.25C1.96 11.28 1.92 11.36 1.87 11.42C1.83 11.48 1.79 11.56 1.79 11.58C1.79 11.61 1.75 11.68 1.71 11.74C1.6 11.89 1.54 12.17 1.48 12.71C1.37 13.64 1.52 14.62 1.87 15.29C1.92 15.38 1.97 15.53 1.99 15.62C2 15.72 2.04 15.83 2.06 15.88C2.08 15.93 2.13 16.06 2.16 16.19C2.23 16.49 2.47 17.12 2.53 17.2C2.6 17.28 2.75 17.28 2.86 17.2C2.91 17.17 3.01 17.04 3.1 16.91C3.19 16.77 3.33 16.64 3.47 16.56C3.59 16.49 3.77 16.35 3.87 16.24C3.97 16.13 4.13 16 4.23 15.95C4.32 15.9 4.45 15.8 4.5 15.72C4.62 15.55 4.8 15.39 4.9 15.36C4.94 15.34 5.04 15.22 5.13 15.08C5.21 14.94 5.35 14.79 5.42 14.73C5.5 14.68 5.63 14.52 5.7 14.38C5.77 14.24 5.85 14.11 5.87 14.09C5.94 14.03 6.16 13.68 6.16 13.64C6.16 13.62 6.19 13.58 6.22 13.54C6.26 13.5 6.31 13.38 6.33 13.27C6.35 13.16 6.4 13 6.43 12.9C6.5 12.72 6.52 12.46 6.48 12.34C6.42 12.18 6.08 12.31 5.72 12.64C5.6 12.75 5.47 12.84 5.44 12.84C5.28 12.84 4.79 13.12 4.51 13.37C4.41 13.46 4.29 13.54 4.25 13.54C4.22 13.54 4.06 13.67 3.89 13.84C3.73 14 3.54 14.17 3.47 14.22C3.35 14.3 3.35 14.3 3.29 14.22C3.25 14.17 3.23 14.05 3.23 13.95C3.23 13.78 3.08 13.24 2.95 12.95C2.74 12.48 2.7 12.25 2.69 11.59C2.69 11.06 2.7 10.89 2.76 10.74C2.84 10.53 2.83 10.49 2.65 10.45C2.56 10.42 2.5 10.45 2.36 10.58ZM41.24 10.47C41.18 10.51 41.17 10.54 41.2 10.59C41.22 10.64 41.28 10.85 41.33 11.06C41.42 11.44 41.42 11.46 41.35 11.83C41.32 12.03 41.21 12.41 41.13 12.66C40.98 13.1 40.95 13.26 40.86 13.95C40.83 14.13 40.79 14.28 40.74 14.32C40.67 14.39 40.64 14.36 40.31 14.01C40.12 13.81 39.91 13.61 39.87 13.59C39.82 13.56 39.61 13.42 39.4 13.26C39.17 13.09 38.93 12.95 38.78 12.91C38.65 12.86 38.46 12.76 38.35 12.67C38.09 12.44 37.74 12.22 37.63 12.22C37.5 12.22 37.44 12.36 37.47 12.54C37.5 12.7 37.8 13.5 37.94 13.8C37.99 13.91 38.09 14.04 38.15 14.1C38.22 14.16 38.31 14.3 38.36 14.41C38.41 14.52 38.56 14.72 38.69 14.85C38.83 14.99 39.14 15.3 39.38 15.55C39.63 15.8 39.89 16.03 39.96 16.06C40.04 16.1 40.18 16.21 40.26 16.32C40.35 16.43 40.52 16.56 40.62 16.62C40.74 16.68 40.85 16.77 40.9 16.86C41.02 17.1 41.17 17.26 41.3 17.29C41.39 17.31 41.42 17.29 41.5 17.16C41.55 17.08 41.6 16.98 41.6 16.94C41.6 16.89 41.65 16.74 41.71 16.59C41.77 16.44 41.87 16.21 41.92 16.08C41.98 15.95 42.07 15.67 42.12 15.47C42.17 15.26 42.25 15.02 42.28 14.94C42.57 14.19 42.68 13.38 42.58 12.72C42.54 12.49 42.48 12.25 42.45 12.18C42.42 12.12 42.38 12.01 42.36 11.93C42.35 11.85 42.31 11.77 42.27 11.74C42.24 11.71 42.2 11.62 42.19 11.54C42.15 11.32 42.03 11.09 41.83 10.81C41.56 10.45 41.41 10.37 41.24 10.47ZM0.55 16.54C0.38 16.72 0.34 16.79 0.26 17.12C0.14 17.61 0.1 18.53 0.16 19.16C0.23 19.77 0.37 20.23 0.61 20.53C0.65 20.58 0.73 20.75 0.8 20.9C0.94 21.21 1.13 21.51 1.24 21.6C1.28 21.64 1.35 21.74 1.4 21.84C1.45 21.94 1.58 22.12 1.69 22.24C1.86 22.43 2.18 23 2.18 23.12C2.18 23.22 2.4 23.4 2.52 23.4C2.64 23.4 2.66 23.38 2.73 23.18C2.77 23.06 2.88 22.87 2.97 22.76C3.07 22.65 3.17 22.5 3.21 22.42C3.25 22.34 3.34 22.21 3.42 22.12C3.69 21.8 3.88 21.52 3.97 21.33C4.01 21.23 4.13 21.04 4.23 20.92C4.34 20.79 4.44 20.61 4.48 20.46C4.52 20.33 4.57 20.19 4.59 20.16C4.6 20.12 4.65 20.03 4.68 19.96C4.72 19.89 4.77 19.77 4.81 19.7C4.99 19.34 5.03 19.22 5.11 18.73C5.2 18.16 5.22 17.44 5.15 17.3C5.04 17.1 4.8 17.26 4.51 17.71C4.45 17.8 4.36 17.9 4.31 17.92C4.25 17.94 4.15 18.03 4.08 18.12C3.91 18.33 3.79 18.45 3.62 18.57C3.55 18.63 3.41 18.79 3.32 18.93C3.22 19.07 3.13 19.19 3.1 19.2C3.02 19.23 2.71 19.75 2.66 19.94C2.6 20.12 2.52 20.24 2.43 20.24C2.41 20.24 2.36 20.17 2.33 20.08C2.29 19.99 2.23 19.89 2.2 19.85C2.17 19.81 2.1 19.66 2.05 19.5C1.99 19.35 1.87 19.14 1.78 19.03C1.59 18.82 1.51 18.66 1.41 18.39C1.38 18.29 1.29 18.12 1.22 18C1.15 17.89 1.08 17.74 1.06 17.67C1.04 17.6 1 17.49 0.96 17.42C0.92 17.34 0.89 17.11 0.87 16.83C0.86 16.56 0.83 16.37 0.8 16.36C0.77 16.35 0.66 16.43 0.55 16.54ZM43.14 16.4C43.12 16.42 43.11 16.63 43.1 16.84C43.1 17.09 43.07 17.3 43.03 17.4C42.99 17.48 42.94 17.62 42.91 17.7C42.71 18.25 42.64 18.42 42.44 18.71C42.32 18.89 42.17 19.16 42.1 19.3C42.04 19.45 41.97 19.59 41.96 19.61C41.76 19.91 41.58 20.16 41.55 20.16C41.53 20.16 41.49 20.09 41.47 20.01C41.44 19.93 41.37 19.8 41.31 19.73C41.25 19.66 41.11 19.48 41 19.32C40.8 19.01 40.32 18.47 39.98 18.16C39.74 17.95 39.5 17.7 39.25 17.43C39.14 17.31 39.03 17.22 39 17.22C38.96 17.22 38.9 17.28 38.86 17.36C38.75 17.58 38.81 18.16 39.09 19.36C39.16 19.69 39.32 20.04 39.51 20.33C39.58 20.43 39.65 20.58 39.66 20.66C39.69 20.79 39.78 20.96 40.02 21.27C40.09 21.37 40.21 21.56 40.28 21.69C40.35 21.82 40.52 22.04 40.65 22.17C40.79 22.3 40.9 22.43 40.9 22.46C40.9 22.48 40.96 22.59 41.03 22.69C41.1 22.8 41.2 23 41.25 23.14C41.33 23.37 41.36 23.4 41.46 23.4C41.55 23.4 41.61 23.35 41.72 23.21C41.99 22.83 42.16 22.55 42.16 22.49C42.16 22.45 42.27 22.31 42.41 22.16C42.54 22.01 42.69 21.81 42.74 21.72C42.81 21.55 43.06 21.19 43.19 21.03C43.22 21 43.28 20.87 43.32 20.75C43.36 20.63 43.49 20.33 43.6 20.09C43.91 19.44 44 18.81 43.91 17.9C43.84 17.12 43.74 16.85 43.37 16.42C43.29 16.33 43.19 16.32 43.14 16.4ZM4.69 22.48C4.65 22.56 4.58 22.78 4.54 22.99C4.5 23.2 4.43 23.4 4.4 23.44C4.27 23.58 4.01 24.13 3.89 24.5C3.82 24.7 3.69 25.05 3.61 25.27C3.49 25.57 3.44 25.77 3.42 26.07C3.4 26.29 3.37 26.47 3.35 26.47C3.32 26.47 3.17 26.35 3.01 26.19C2.67 25.87 2.07 25.37 1.89 25.26C1.82 25.22 1.64 25.07 1.5 24.94C1.35 24.8 1.17 24.65 1.1 24.6C1.03 24.54 0.93 24.42 0.89 24.33C0.85 24.24 0.76 24.09 0.71 24C0.65 23.91 0.57 23.75 0.54 23.66C0.46 23.44 0.34 23.27 0.25 23.27C0.22 23.27 0.14 23.35 0.09 23.46C-0.02 23.67 -0.04 24.06 0.04 24.41C0.07 24.52 0.12 24.78 0.15 25C0.26 25.67 0.33 25.84 0.74 26.43C0.78 26.49 0.85 26.61 0.88 26.7C1.02 27.03 2.21 28.09 2.77 28.38C2.89 28.45 3.08 28.57 3.18 28.66C3.29 28.75 3.48 28.88 3.6 28.95C3.72 29.01 3.92 29.16 4.04 29.27C4.37 29.57 4.4 29.58 4.53 29.61C4.75 29.65 4.82 29.54 4.81 29.22C4.8 28.91 4.87 28.51 4.96 28.38C5.01 28.29 5.11 27.87 5.2 27.38C5.22 27.24 5.26 27.08 5.28 27.02C5.31 26.96 5.38 26.65 5.44 26.35C5.57 25.69 5.62 24.88 5.55 24.41C5.46 23.8 5.38 23.42 5.31 23.26C5.27 23.17 5.24 23.06 5.24 23.02C5.24 22.87 5.01 22.45 4.91 22.4C4.76 22.33 4.77 22.33 4.69 22.48ZM39.08 22.49C38.59 23.04 38.37 24.26 38.49 25.74C38.54 26.35 38.58 26.57 38.73 27.08C39.07 28.2 39.15 28.58 39.17 29.15C39.19 29.74 39.32 29.77 39.93 29.3C40.16 29.13 40.43 28.94 40.52 28.88C40.62 28.82 40.76 28.72 40.84 28.65C40.92 28.58 41.08 28.47 41.21 28.4C41.56 28.22 42.06 27.84 42.55 27.36C43.02 26.91 43.29 26.56 43.42 26.24C43.46 26.14 43.53 25.99 43.59 25.92C43.64 25.85 43.75 25.62 43.82 25.42C43.95 25.08 43.96 25 43.99 24.34C44.01 23.59 43.98 23.35 43.82 23.27C43.7 23.2 43.54 23.38 43.48 23.62C43.39 23.99 43.2 24.29 42.8 24.7C42.58 24.92 42.26 25.19 42.08 25.31C41.66 25.58 41.25 25.94 40.8 26.41C40.67 26.55 40.61 26.52 40.6 26.29C40.59 26.01 40.51 25.61 40.42 25.33C40.37 25.2 40.32 25 40.29 24.89C40.16 24.4 40.12 24.27 39.97 24.07C39.81 23.85 39.65 23.51 39.61 23.29C39.59 23.22 39.54 23.07 39.49 22.96C39.44 22.85 39.36 22.68 39.32 22.58C39.23 22.37 39.2 22.35 39.08 22.49ZM37.4 27.56C37.28 27.61 37 27.89 36.88 28.07C36.69 28.36 36.66 28.41 36.59 28.57C36.56 28.66 36.48 28.81 36.41 28.92C36.18 29.34 36.04 29.7 36 29.97C35.98 30.13 35.94 30.33 35.92 30.41C35.68 31.33 35.58 32.01 35.53 33.2C35.5 33.66 35.46 34.06 35.41 34.26C35.32 34.65 35.34 34.72 35.59 34.75C35.81 34.76 36.09 34.69 36.47 34.51C36.64 34.43 36.81 34.36 36.83 34.36C36.85 34.36 36.96 34.33 37.08 34.29C37.19 34.25 37.43 34.19 37.61 34.16C38.3 34.04 38.43 33.99 39.08 33.65C39.16 33.61 39.38 33.5 39.59 33.39C40.05 33.17 40.55 32.75 40.97 32.25C41.35 31.79 41.42 31.68 41.55 31.38C41.6 31.25 41.68 31.09 41.72 31.03C41.81 30.89 41.98 30.47 41.99 30.35C42.02 30.04 41.99 29.89 41.88 29.82C41.77 29.75 41.76 29.75 41.66 29.85C41.6 29.9 41.53 30.03 41.5 30.12C41.46 30.25 41.39 30.33 41.21 30.46C41.07 30.55 40.91 30.69 40.84 30.76C40.77 30.83 40.69 30.9 40.66 30.9C40.63 30.9 40.54 30.94 40.45 30.98C40.36 31.03 40.26 31.07 40.23 31.07C40.16 31.07 39.74 31.25 39.54 31.36C39.47 31.39 39.38 31.42 39.34 31.42C39.29 31.42 39.2 31.46 39.13 31.5C39.06 31.54 38.88 31.61 38.74 31.64C38.59 31.67 38.43 31.72 38.39 31.75C38.34 31.78 38.16 31.88 38 31.96L37.69 32.12L37.72 31.94C37.74 31.83 37.77 31.66 37.79 31.55C37.85 31.26 37.84 29.97 37.77 29.08C37.74 28.64 37.71 28.14 37.71 27.96C37.71 27.55 37.63 27.45 37.4 27.56ZM6.4 27.62C6.38 27.65 6.36 28.04 6.33 28.49C6.31 28.93 6.27 29.37 6.24 29.45C6.21 29.53 6.18 29.97 6.17 30.41C6.15 31.16 6.16 31.25 6.24 31.49C6.33 31.74 6.36 32.04 6.3 32.09C6.27 32.12 6.1 32.04 5.75 31.82C5.64 31.75 5.47 31.68 5.38 31.66C5.23 31.64 4.93 31.53 4.45 31.33C4.34 31.29 4.04 31.17 3.78 31.07C3.52 30.96 3.29 30.85 3.26 30.81C3.23 30.77 3.09 30.65 2.96 30.55C2.82 30.45 2.65 30.27 2.58 30.15C2.51 30.04 2.4 29.9 2.35 29.85C2.26 29.76 2.25 29.76 2.17 29.83C2.06 29.93 2.03 30.15 2.09 30.51C2.16 30.89 2.17 30.92 2.42 31.31C2.53 31.48 2.66 31.72 2.72 31.84C2.78 31.97 2.91 32.13 3.05 32.25C3.17 32.35 3.27 32.46 3.27 32.49C3.28 32.58 3.43 32.72 3.68 32.89C3.81 32.97 3.95 33.08 3.98 33.12C4.06 33.24 4.29 33.39 4.46 33.44C4.54 33.47 4.82 33.6 5.09 33.73C5.59 33.98 5.81 34.04 6.44 34.16C6.66 34.2 6.9 34.26 6.97 34.3C7.05 34.33 7.13 34.36 7.15 34.36C7.17 34.36 7.35 34.43 7.54 34.52C7.93 34.7 8.55 34.81 8.66 34.72C8.74 34.65 8.7 34.41 8.57 34.15C8.49 34 8.47 33.89 8.47 33.54C8.47 32.92 8.4 32.19 8.23 30.9C8.16 30.36 8.12 30.18 8.03 29.93C7.97 29.76 7.75 29.25 7.68 29.12C7.65 29.08 7.61 28.95 7.57 28.83C7.54 28.72 7.43 28.53 7.33 28.41C7.24 28.3 7.12 28.12 7.07 28.02C6.94 27.75 6.71 27.56 6.51 27.56C6.46 27.56 6.41 27.59 6.4 27.62ZM33.66 32.2C33.45 32.25 33.13 32.45 32.97 32.63C32.87 32.74 32.71 32.89 32.6 32.97C32.5 33.05 32.38 33.16 32.35 33.22C32.32 33.28 32.19 33.45 32.07 33.59C31.94 33.74 31.83 33.9 31.8 33.95C31.78 34.01 31.75 34.05 31.72 34.05C31.7 34.05 31.68 34.08 31.68 34.11C31.68 34.15 31.55 34.36 31.4 34.58C31.25 34.81 31.08 35.13 31.03 35.3C30.97 35.47 30.85 35.76 30.75 35.94C30.56 36.33 30.42 36.7 30.38 36.98C30.34 37.25 30.16 37.73 30.06 37.84C29.94 37.98 29.67 38.48 29.67 38.57C29.67 38.73 29.8 38.75 31.45 38.77C32.98 38.78 33.59 38.75 33.93 38.65C34 38.63 34.19 38.58 34.34 38.55C34.5 38.51 34.75 38.45 34.91 38.42C35.07 38.38 35.3 38.29 35.43 38.21C35.55 38.13 35.83 37.95 36.05 37.82C36.28 37.68 36.48 37.52 36.53 37.45C36.58 37.37 36.71 37.26 36.83 37.19C36.99 37.1 37.07 37.02 37.16 36.85C37.23 36.72 37.35 36.54 37.42 36.45C37.59 36.26 37.68 35.96 37.61 35.84C37.56 35.73 37.39 35.74 37.24 35.86C37.07 36 36.3 36.37 36.18 36.37C36.13 36.37 36.02 36.4 35.94 36.44C35.75 36.52 35.5 36.54 34.63 36.57C34.22 36.59 33.65 36.62 33.36 36.64C33.08 36.67 32.84 36.68 32.83 36.67C32.79 36.63 32.95 36.27 33.08 36.11C33.26 35.87 33.41 35.52 33.46 35.17C33.49 35 33.55 34.66 33.6 34.42C33.65 34.18 33.72 33.85 33.75 33.68C33.84 33.25 33.88 33.08 33.94 32.98C33.96 32.93 34.01 32.77 34.04 32.63C34.07 32.48 34.1 32.34 34.11 32.32C34.15 32.22 33.88 32.15 33.66 32.2ZM9.99 32.25C9.97 32.27 9.99 32.41 10.03 32.56C10.06 32.72 10.11 33.01 10.13 33.22C10.16 33.42 10.2 33.68 10.24 33.79C10.27 33.9 10.31 34.07 10.33 34.18C10.34 34.29 10.42 34.61 10.51 34.9C10.6 35.19 10.69 35.53 10.71 35.65C10.73 35.77 10.78 35.92 10.82 35.98C11.24 36.55 11.31 36.72 11.11 36.69C10.59 36.63 10.05 36.59 9.33 36.57C8.23 36.54 7.95 36.48 7.21 36.11C7.06 36.04 6.86 35.92 6.78 35.86C6.62 35.74 6.45 35.75 6.4 35.88C6.39 35.91 6.41 36.06 6.44 36.21C6.5 36.4 6.56 36.5 6.68 36.61C6.78 36.7 6.88 36.82 6.92 36.89C6.95 36.96 7.05 37.08 7.14 37.15C7.23 37.22 7.41 37.38 7.54 37.51C7.67 37.63 7.85 37.77 7.94 37.81C8.02 37.84 8.18 37.94 8.27 38.02C8.57 38.26 9.06 38.44 9.67 38.54C9.77 38.56 9.97 38.61 10.13 38.66C10.48 38.76 11.63 38.81 12.4 38.75C12.75 38.72 13.11 38.72 13.45 38.75C14.08 38.81 14.27 38.78 14.34 38.63C14.4 38.49 14.35 38.39 14.06 38.02C13.86 37.76 13.83 37.69 13.74 37.27C13.67 37 13.54 36.6 13.41 36.32C13.3 36.05 13.16 35.71 13.11 35.56C13.07 35.41 12.92 35.12 12.79 34.9C12.66 34.68 12.54 34.46 12.52 34.4C12.51 34.34 12.43 34.22 12.34 34.13C12.26 34.04 12.12 33.85 12.03 33.7C11.84 33.39 10.8 32.36 10.59 32.27C10.43 32.21 10.02 32.19 9.99 32.25ZM14.51 35.35C14.48 35.36 14.46 35.43 14.46 35.51C14.46 35.61 14.51 35.69 14.68 35.87C14.81 35.99 14.96 36.2 15.02 36.33C15.09 36.46 15.26 36.77 15.41 37.01C15.56 37.25 15.68 37.48 15.68 37.52C15.68 37.57 15.77 37.7 15.88 37.82C15.99 37.94 16.12 38.12 16.16 38.22C16.28 38.44 16.9 39.07 17.04 39.11C17.15 39.15 17.39 39.35 17.39 39.41C17.39 39.42 17.29 39.45 17.18 39.47C17.07 39.48 16.83 39.53 16.65 39.58C16.47 39.62 16.27 39.66 16.2 39.66C16.06 39.66 15.36 39.86 15.18 39.96C14.83 40.14 14.39 40.24 13.85 40.26C13.3 40.29 12.7 40.23 12.64 40.14C12.63 40.12 12.56 40.1 12.49 40.1C12.33 40.1 12.28 40.24 12.39 40.38C12.43 40.43 12.51 40.54 12.55 40.63C12.63 40.78 12.82 40.93 12.94 40.93C12.97 40.93 13.07 40.98 13.15 41.05C13.55 41.35 13.89 41.47 14.98 41.69C15.46 41.78 16.4 41.75 17.06 41.62C17.37 41.56 17.72 41.5 17.82 41.48C17.93 41.46 18.07 41.42 18.13 41.39C18.64 41.12 19.96 40.64 20.39 40.56C20.48 40.54 20.63 40.48 20.74 40.42C20.99 40.28 20.97 40.23 20.49 39.73C20.28 39.51 20.02 39.19 19.9 39C19.78 38.82 19.61 38.61 19.51 38.52C19.42 38.44 19.32 38.31 19.28 38.24C19.24 38.17 19.09 37.99 18.94 37.84C18.8 37.7 18.64 37.52 18.6 37.46C18.55 37.39 18.45 37.3 18.37 37.26C18.29 37.22 18.15 37.1 18.06 36.99C17.97 36.88 17.82 36.74 17.72 36.69C17.62 36.63 17.49 36.54 17.43 36.49C17.21 36.29 16.79 36.04 16.5 35.92C16.34 35.85 16.19 35.78 16.18 35.76C16.14 35.7 15.59 35.45 15.4 35.4C15.18 35.35 14.59 35.32 14.51 35.35ZM28.55 35.42C28.29 35.51 28.09 35.6 27.83 35.76C27.79 35.78 27.59 35.88 27.38 35.98C27.16 36.08 26.91 36.24 26.81 36.33C26.7 36.43 26.55 36.54 26.47 36.57C26.28 36.66 26.22 36.71 26.06 36.92C25.99 37.01 25.87 37.11 25.8 37.14C25.73 37.17 25.61 37.26 25.54 37.34C25.46 37.42 25.3 37.59 25.18 37.72C25.05 37.85 24.92 38.01 24.88 38.08C24.85 38.15 24.72 38.29 24.6 38.39C24.47 38.5 24.33 38.67 24.26 38.8C24.15 39.03 24.06 39.13 23.45 39.76C23.02 40.2 23 40.31 23.32 40.44C23.43 40.49 23.59 40.54 23.68 40.56C23.99 40.62 25.02 40.99 25.37 41.16C25.56 41.25 25.75 41.33 25.77 41.33C25.79 41.33 25.87 41.36 25.94 41.39C26 41.43 26.41 41.52 26.83 41.6C27.8 41.78 28.59 41.79 29.29 41.64C29.53 41.59 29.85 41.52 30 41.49C30.14 41.46 30.32 41.39 30.39 41.34C30.46 41.29 30.62 41.2 30.75 41.13C31.38 40.79 31.49 40.7 31.59 40.47C31.73 40.14 31.63 40.02 31.31 40.15C31.14 40.22 30.96 40.25 30.54 40.26C29.9 40.29 29.51 40.22 28.99 40.01C28.48 39.81 28.29 39.75 27.9 39.68C27.7 39.65 27.42 39.59 27.26 39.55C27.11 39.52 26.91 39.48 26.82 39.46C26.72 39.45 26.65 39.41 26.65 39.38C26.65 39.31 26.82 39.16 26.99 39.09C27.07 39.06 27.2 38.97 27.28 38.88C27.35 38.79 27.52 38.62 27.65 38.5C27.78 38.37 27.92 38.19 27.96 38.1C28 38 28.09 37.86 28.17 37.77C28.33 37.58 28.46 37.36 28.6 37.02C28.66 36.87 28.79 36.66 28.88 36.55C28.97 36.44 29.08 36.28 29.11 36.2C29.15 36.12 29.26 35.94 29.38 35.8C29.6 35.53 29.62 35.44 29.5 35.37C29.36 35.29 28.88 35.32 28.55 35.42ZM21.94 36.36C21.91 36.37 21.83 36.49 21.77 36.63C21.71 36.77 21.57 36.97 21.47 37.08C21.37 37.19 21.24 37.38 21.19 37.5C21.14 37.63 21.04 37.84 20.97 37.97C20.71 38.43 20.75 38.77 21.11 39.27C21.36 39.6 21.49 39.66 21.94 39.66C22.65 39.66 22.99 39.41 23.13 38.77C23.2 38.49 23.2 38.44 23.14 38.27C23.1 38.16 23.07 38.04 23.07 38C23.07 37.85 22.84 37.44 22.63 37.23C22.51 37.1 22.4 36.93 22.38 36.84C22.34 36.7 22.08 36.33 22.02 36.33C22.01 36.34 21.97 36.35 21.94 36.36ZM21.61 40.73C21.29 40.85 21.07 41.05 20.92 41.37C20.71 41.79 20.72 41.89 21.04 42.49C21.2 42.79 21.28 42.95 21.28 43C21.28 43.03 21.38 43.17 21.51 43.3C21.66 43.47 21.76 43.62 21.8 43.76C21.86 43.94 21.89 43.98 21.98 43.99C22.07 44 22.12 43.97 22.2 43.84C22.26 43.75 22.33 43.62 22.35 43.56C22.36 43.5 22.44 43.37 22.52 43.28C22.91 42.78 23.09 42.4 23.19 41.89C23.21 41.75 23 41.1 22.9 41.01C22.75 40.87 22.17 40.63 22.02 40.63C21.93 40.63 21.75 40.68 21.61 40.73Z" fill="#FFFFFF" fill-opacity="1.000000" fill-rule="evenodd"/>
	<path id="Hub" d="M65.11 8.89Q64.07 9.12 63.89 9.38L62.67 19.71L61.9 19.91Q58.92 20.71 56.97 21.41L58.64 8.67Q58.35 8.64 57.42 8.64Q56.49 8.64 55.5 8.93Q54.51 9.22 53.9 9.64L52.27 23.53Q47.9 26.01 47.48 29.04Q47.43 29.37 47.43 29.7Q47.43 30.88 47.97 31.74Q48.12 31.99 48.33 32.21Q48.51 32.41 48.71 32.56Q49.55 33.19 50.86 33.19Q52.54 33.19 53.7 32.42Q55.69 31.1 56.17 27.53L56.62 24Q59.02 23.17 61.96 22.31L62.38 22.18L61.13 33L65.48 33L68.62 8.9Q68.01 8.64 67.08 8.64Q66.15 8.64 65.11 8.89ZM97.43 17.82Q96.69 17.57 95.86 17.57Q93.58 17.57 92.08 18.63L93.16 10.11Q93.16 9.75 93 9.47Q92.53 8.64 90.61 8.64Q89.48 8.64 88.81 8.9Q87.56 20.2 86.89 25.25Q86.65 27.08 86.59 28.16Q86.29 28.71 85.95 29.11Q84.97 30.25 84.14 30.25Q83.82 30.25 83.61 30.09Q83.21 29.8 83.21 28.96Q83.21 28.29 84.52 17.92Q83.98 17.6 82.87 17.6Q81.77 17.6 81.03 17.97Q80.3 18.34 80.08 18.89L79.02 27.39Q78.95 28.17 78.95 28.52Q78.24 29.58 77.26 29.92Q76.81 30.08 76.3 30.08Q75.51 30.08 75.08 29.69Q74.57 29.22 74.57 28.2Q74.57 27.88 74.63 27.49L75.69 19.33Q75.69 18.57 75.31 18.15Q75.31 18.15 75.3 18.15Q74.92 17.73 74.51 17.67Q74.09 17.6 73.26 17.6Q72.43 17.6 71.44 17.96Q71.05 21.47 70.31 27.42Q70.16 28.55 70.16 29Q70.16 30.19 70.67 31.1Q70.96 31.6 71.4 32L71.4 32Q72.65 33.15 74.95 33.15Q76.45 33.15 77.62 32.54Q78.63 32 79.41 31.01Q79.75 31.78 80.33 32.27Q81.36 33.15 83.15 33.15Q83.31 33.15 83.48 33.14Q85 33.03 86.45 31.88Q86.94 31.48 87.35 30.91Q87.49 31.12 87.66 31.33Q88.23 32.1 89.42 32.61Q90.61 33.12 92.2 33.19Q95.55 33.19 97.82 31.63Q98.25 31.34 98.63 31Q98.88 30.77 99.11 30.53Q101.13 28.38 101.45 24.61Q101.48 24.23 101.48 23.88Q101.48 22.58 101.04 21.44Q100.63 20.38 99.82 19.46Q98.75 18.26 97.43 17.82ZM91.03 29.28Q90.89 28.97 90.89 28.6Q90.89 27.85 91.31 24.61L91.56 22.69Q92.24 21.15 93.36 20.7Q93.82 20.52 94.35 20.52Q95.11 20.52 95.64 20.86Q96.05 21.13 96.33 21.6Q96.41 21.74 96.48 21.87Q96.97 22.86 96.97 24.1Q96.97 27.01 95.69 28.84Q95.02 29.79 94.12 30.14Q93.6 30.34 93 30.34Q92.01 30.34 91.45 29.85L91.45 29.85Q91.17 29.59 91.03 29.28ZM49.95 30.04Q49.67 29.78 49.67 29.22Q49.67 27.91 51.95 26.34L51.89 26.82Q51.85 27.07 51.82 27.53Q51.78 27.97 51.75 28.25Q51.72 28.52 51.66 28.87Q51.6 29.22 51.51 29.43Q51.43 29.64 51.27 29.94Q51.24 29.99 51.2 30.04Q51.02 30.25 50.6 30.25Q50.18 30.25 49.95 30.04Z" fill="#FE0404" fill-opacity="1.000000" fill-rule="evenodd"/>
</svg>
