<svg width="25.789551" height="25.789062" viewBox="0 0 25.7896 25.7891" fill="none" xmlns="http://www.w3.org/2000/svg" xmlns:xlink="http://www.w3.org/1999/xlink">
	<desc>
			Created with Pixso.
	</desc>
	<defs/>
	<rect id="MapPin" rx="-0.537281" width="24.714912" height="24.714912" transform="translate(0.537281 0.537281)" fill="#FFFFFF" fill-opacity="0"/>
	<path id="Vector" d="M12.89 1.61C10.54 1.61 8.29 2.54 6.62 4.21C4.96 5.87 4.03 8.12 4.02 10.47C4.02 18.06 12.08 23.79 12.43 24.03C12.56 24.12 12.72 24.17 12.89 24.17C13.05 24.17 13.22 24.12 13.35 24.03C13.69 23.79 21.75 18.06 21.75 10.47C21.75 8.12 20.82 5.87 19.15 4.21C17.49 2.54 15.24 1.61 12.89 1.61ZM12.89 7.25C13.53 7.25 14.15 7.44 14.68 7.79C15.21 8.15 15.62 8.65 15.87 9.24C16.11 9.83 16.18 10.48 16.05 11.1C15.93 11.73 15.62 12.3 15.17 12.75C14.72 13.2 14.14 13.51 13.52 13.63C12.89 13.76 12.24 13.69 11.66 13.45C11.07 13.21 10.56 12.79 10.21 12.26C9.85 11.73 9.67 11.11 9.67 10.47C9.67 10.05 9.75 9.63 9.91 9.24C10.07 8.85 10.31 8.49 10.61 8.19C10.91 7.89 11.26 7.66 11.66 7.49C12.05 7.33 12.47 7.25 12.89 7.25Z" fill="#E41C26" fill-opacity="1.000000" fill-rule="nonzero"/>
</svg>
