<svg width="20" height="16" viewBox="0 0 20 16" fill="none" xmlns="http://www.w3.org/2000/svg">
<path d="M19.5 2.30773V13.6923C19.5 14.1974 19.325 14.625 18.975 14.975C18.625 15.325 18.1974 15.5 17.6923 15.5H2.3077C1.80257 15.5 1.375 15.325 1.025 14.975C0.675 14.625 0.5 14.1974 0.5 13.6923V2.30773C0.5 1.8026 0.675 1.37503 1.025 1.02503C1.375 0.675031 1.80257 0.500031 2.3077 0.500031H17.6923C18.1974 0.500031 18.625 0.675031 18.975 1.02503C19.325 1.37503 19.5 1.8026 19.5 2.30773ZM1.99998 4.40388H18V2.30773C18 2.2308 17.9679 2.16027 17.9038 2.09616C17.8397 2.03206 17.7692 2.00001 17.6923 2.00001H2.3077C2.23077 2.00001 2.16024 2.03206 2.09613 2.09616C2.03202 2.16027 1.99998 2.2308 1.99998 2.30773V4.40388ZM1.99998 7.59613V13.6923C1.99998 13.7692 2.03202 13.8397 2.09613 13.9039C2.16024 13.968 2.23077 14 2.3077 14H17.6923C17.7692 14 17.8397 13.968 17.9038 13.9039C17.9679 13.8397 18 13.7692 18 13.6923V7.59613H1.99998Z" fill="white"/>
</svg>
