<svg width="17" height="16" viewBox="0 0 17 16" fill="none" xmlns="http://www.w3.org/2000/svg">
<path d="M14.8233 4.52427L13.8051 5.48486L11.2597 3.08042L12.2779 2.11983C12.4853 1.92415 12.8466 1.92415 13.054 2.11983L14.8233 3.79197C15.0369 3.99357 15.0369 4.32267 14.8233 4.52427ZM6.31657 12.5588L3.77117 10.1544L10.3515 3.93724L12.8969 6.34169L6.31657 12.5588ZM3.18353 11.3136L5.08787 13.1133L2.43562 13.8189L3.18353 11.3136ZM15.7314 2.93514L13.9622 1.263C13.6165 0.936877 12.369 0.320202 11.3728 1.263L2.40734 9.72747C2.32877 9.80159 2.27221 9.89054 2.24393 9.99134L0.892662 14.5304C0.829813 14.7409 0.895805 14.9663 1.05607 15.1234C1.21948 15.2805 1.5463 15.3072 1.68457 15.2776L6.49255 13.9997C6.5994 13.9731 6.69367 13.9197 6.77223 13.8456L15.7314 5.38109C16.4448 4.70809 16.4448 3.61112 15.7314 2.93514Z" fill="white"/>
</svg>
