<svg width="27" height="27" viewBox="0 0 27 27" fill="none" xmlns="http://www.w3.org/2000/svg">
<path d="M21.4916 16.0682L17.4585 14.3398C17.248 14.2491 17.0181 14.2126 16.7898 14.2336C16.5615 14.2546 16.3421 14.3324 16.1515 14.4599L13.9952 15.8973C12.6773 15.2563 11.6106 14.1943 10.9638 12.8792L10.964 12.8791L12.3963 10.6904C12.521 10.5004 12.5966 10.2825 12.6165 10.0561C12.6363 9.8297 12.5997 9.60192 12.51 9.39312L10.78 5.35665C10.6622 5.08265 10.4589 4.85417 10.2004 4.70542C9.9419 4.55667 9.64218 4.49565 9.34611 4.53149C8.1827 4.68108 7.11353 5.24909 6.33835 6.12942C5.56316 7.00976 5.13498 8.14219 5.13379 9.31518C5.13379 16.1522 10.6961 21.7145 17.5331 21.7145C18.7061 21.7133 19.8386 21.2851 20.7189 20.5099C21.5992 19.7347 22.1672 18.6655 22.3168 17.5021C22.3526 17.206 22.2915 16.9063 22.1427 16.6479C21.994 16.3894 21.7655 16.186 21.4916 16.0682Z" fill="#E41C26"/>
</svg>
