<svg width="130.000000" height="130.000000" viewBox="0 0 130 130" fill="none" xmlns="http://www.w3.org/2000/svg" xmlns:xlink="http://www.w3.org/1999/xlink">
	<desc>
			Created with Pixso.
	</desc>
	<defs>
		<clipPath id="clip15_1167">
			<rect id="ph:play-fill" rx="-0.500000" width="49.000000" height="49.000000" transform="translate(40.500000 40.500000)" fill="white" fill-opacity="0"/>
		</clipPath>
	</defs>
	<circle id="Ellipse 4" cx="65.000000" cy="65.000000" r="65.000000" fill="#FFFFFF" fill-opacity="0.250000"/>
	<circle id="Ellipse 3" cx="65.000000" cy="65.000000" r="50.000000" fill="#FFFFFF" fill-opacity="1.000000"/>
	<rect id="ph:play-fill" rx="-0.500000" width="49.000000" height="49.000000" transform="translate(40.500000 40.500000)" fill="#FFFFFF" fill-opacity="0"/>
	<g clip-path="url(#clip15_1167)">
		<path id="Vector" d="M86.87 65C86.87 65.53 86.74 66.05 86.48 66.51C86.22 66.97 85.84 67.36 85.39 67.63L57.25 84.85C56.77 85.14 56.23 85.3 55.67 85.31C55.11 85.32 54.57 85.18 54.08 84.91C53.6 84.64 53.2 84.25 52.92 83.77C52.64 83.3 52.5 82.76 52.5 82.21L52.5 47.78C52.5 47.23 52.64 46.69 52.92 46.22C53.2 45.74 53.6 45.35 54.08 45.08C54.57 44.81 55.11 44.67 55.67 44.68C56.23 44.69 56.77 44.85 57.25 45.14L85.39 62.36C85.84 62.63 86.22 63.02 86.48 63.48C86.74 63.94 86.87 64.46 86.87 65Z" fill="#E41C26" fill-opacity="1.000000" fill-rule="nonzero"/>
	</g>
</svg>
