<svg width="85" height="83" viewBox="0 0 85 83" fill="none" xmlns="http://www.w3.org/2000/svg">
<g clip-path="url(#clip0_276_4979)">
<path fill-rule="evenodd" clip-rule="evenodd" d="M57.6693 30.366C57.6693 34.3033 56.0714 38.0793 53.2271 40.8634C50.3828 43.6475 46.5251 45.2116 42.5026 45.2116C38.4802 45.2116 34.6225 43.6475 31.7782 40.8634C28.9338 38.0793 27.3359 34.3033 27.3359 30.366C27.3359 26.4288 28.9338 22.6527 31.7782 19.8687C34.6225 17.0846 38.4802 15.5205 42.5026 15.5205C46.5251 15.5205 50.3828 17.0846 53.2271 19.8687C56.0714 22.6527 57.6693 26.4288 57.6693 30.366ZM50.0859 30.366C50.0859 32.3347 49.287 34.2227 47.8648 35.6147C46.4427 37.0068 44.5138 37.7888 42.5026 37.7888C40.4914 37.7888 38.5625 37.0068 37.1404 35.6147C35.7182 34.2227 34.9193 32.3347 34.9193 30.366C34.9193 28.3974 35.7182 26.5094 37.1404 25.1173C38.5625 23.7253 40.4914 22.9433 42.5026 22.9433C44.5138 22.9433 46.4427 23.7253 47.8648 25.1173C49.287 26.5094 50.0859 28.3974 50.0859 30.366Z" fill="#F38686"/>
<path fill-rule="evenodd" clip-rule="evenodd" d="M42.5013 0.674805C19.4669 0.674805 0.792969 18.9534 0.792969 41.5C0.792969 64.0467 19.4669 82.3252 42.5013 82.3252C65.5357 82.3252 84.2096 64.0467 84.2096 41.5C84.2096 18.9534 65.5357 0.674805 42.5013 0.674805ZM8.3763 41.5C8.3763 49.2568 11.0798 56.3975 15.6108 62.0685C18.7929 57.9782 22.898 54.6633 27.6055 52.3829C32.313 50.1025 37.4953 48.9183 42.7478 48.9228C47.9322 48.918 53.0494 50.0715 57.7094 52.2956C62.3694 54.5197 66.4493 57.7556 69.6383 61.7567C72.9235 57.5391 75.1356 52.6164 76.0913 47.3959C77.047 42.1753 76.7189 36.8071 75.1343 31.7353C73.5496 26.6635 70.7538 22.034 66.9783 18.2298C63.2029 14.4256 58.5562 11.5561 53.4227 9.85865C48.2893 8.16125 42.8168 7.68476 37.4579 8.46861C32.0989 9.25246 27.0078 11.2741 22.6056 14.3663C18.2033 17.4585 14.6167 21.5323 12.1423 26.2507C9.66792 30.969 8.37699 36.1963 8.3763 41.5ZM42.5013 74.9025C34.6675 74.914 27.0702 72.2761 20.995 67.4352C23.4403 64.0086 26.6951 61.2109 30.4824 59.2801C34.2698 57.3493 38.4775 56.3426 42.7478 56.3455C46.9647 56.3422 51.1216 57.3238 54.8732 59.2086C58.6249 61.0934 61.8629 63.8272 64.3186 67.1828C58.1961 72.1809 50.4736 74.9134 42.5013 74.9025Z" fill="#F38686"/>
</g>
<defs>
<clipPath id="clip0_276_4979">
<rect width="85" height="83" fill="white"/>
</clipPath>
</defs>
</svg>
