<svg width="42" height="42" viewBox="0 0 42 42" fill="none" xmlns="http://www.w3.org/2000/svg">
<rect width="42" height="42" rx="21" fill="#FE0404" fill-opacity="0.9"/>
<path d="M20 11C24.968 11 29 15.032 29 20C29 24.968 24.968 29 20 29C15.032 29 11 24.968 11 20C11 15.032 15.032 11 20 11ZM20 27C23.8675 27 27 23.8675 27 20C27 16.1325 23.8675 13 20 13C16.1325 13 13 16.1325 13 20C13 23.8675 16.1325 27 20 27ZM28.4853 27.0711L31.3137 29.8995L29.8995 31.3137L27.0711 28.4853L28.4853 27.0711Z" fill="#FFFDFD"/>
</svg>
