<svg width="24" height="22" viewBox="0 0 24 22" fill="none" xmlns="http://www.w3.org/2000/svg">
<path d="M10 3H23M10 3C10 3.53043 9.78929 4.03914 9.41421 4.41421C9.03914 4.78929 8.53043 5 8 5C7.46957 5 6.96086 4.78929 6.58579 4.41421C6.21071 4.03914 6 3.53043 6 3M10 3C10 2.46957 9.78929 1.96086 9.41421 1.58579C9.03914 1.21071 8.53043 1 8 1C7.46957 1 6.96086 1.21071 6.58579 1.58579C6.21071 1.96086 6 2.46957 6 3M6 3H1M10 19H23M10 19C10 19.5304 9.78929 20.0391 9.41421 20.4142C9.03914 20.7893 8.53043 21 8 21C7.46957 21 6.96086 20.7893 6.58579 20.4142C6.21071 20.0391 6 19.5304 6 19M10 19C10 18.4696 9.78929 17.9609 9.41421 17.5858C9.03914 17.2107 8.53043 17 8 17C7.46957 17 6.96086 17.2107 6.58579 17.5858C6.21071 17.9609 6 18.4696 6 19M6 19H1M18 11H23M18 11C18 11.5304 17.7893 12.0391 17.4142 12.4142C17.0391 12.7893 16.5304 13 16 13C15.4696 13 14.9609 12.7893 14.5858 12.4142C14.2107 12.0391 14 11.5304 14 11M18 11C18 10.4696 17.7893 9.96086 17.4142 9.58579C17.0391 9.21071 16.5304 9 16 9C15.4696 9 14.9609 9.21071 14.5858 9.58579C14.2107 9.96086 14 10.4696 14 11M14 11H1" stroke="#FFFEFE" stroke-width="1.5" stroke-linecap="round" stroke-linejoin="round"/>
</svg>
