<svg width="11" height="8" viewBox="0 0 11 8" fill="none" xmlns="http://www.w3.org/2000/svg">
<path d="M5.95833 2.0868V0.625C5.95833 0.280352 6.26671 0 6.64583 0C6.81637 0 6.98107 0.0594141 7.10864 0.167246L7.4045 0.416074C8.378 1.23494 10.0077 2.60539 10.8416 3.36568C10.9436 3.45928 11 3.59559 11 3.75C11 3.90441 10.9436 4.04072 10.8416 4.13453C10.0077 4.89463 8.378 6.26506 7.4045 7.08395L7.10864 7.33277C6.98107 7.44061 6.81637 7.50002 6.64583 7.50002C6.26671 7.50002 5.95833 7.21967 5.95833 6.87502V5.41811C2.65824 5.46022 0.458327 6.40647 0.458327 7.29168C0.458347 7.31904 0.452433 7.34614 0.440923 7.37143C0.429412 7.39671 0.412532 7.41969 0.391248 7.43904C0.369963 7.45839 0.344691 7.47373 0.316877 7.4842C0.289064 7.49466 0.259254 7.50004 0.229153 7.50002C0.199052 7.50004 0.169243 7.49466 0.141429 7.4842C0.113615 7.47373 0.0883436 7.45839 0.0670586 7.43904C0.0457745 7.41969 0.0288944 7.39671 0.0173845 7.37143C0.00587463 7.34614 -4.00543e-05 7.31904 -2.00272e-05 7.29168C1.90735e-06 4.48426 2.65197 2.18852 5.95833 2.0868ZM6.1875 5C6.2176 4.99998 6.24741 5.00536 6.27522 5.01582C6.30304 5.02629 6.32831 5.04163 6.34959 5.06098C6.37088 5.08033 6.38776 5.10331 6.39927 5.12859C6.41078 5.15388 6.41669 5.18097 6.41667 5.20834V6.875C6.41667 6.98994 6.51963 7.08334 6.64585 7.08334C6.71567 7.08334 6.7667 7.05281 6.79714 7.02719L7.093 6.77816C8.06425 5.96131 9.68945 4.59453 10.5166 3.84053C10.5291 3.82914 10.5417 3.79658 10.5417 3.75C10.5417 3.70342 10.5291 3.67086 10.5166 3.65967C9.68945 2.90547 8.06425 1.53869 7.09298 0.721836L6.79712 0.472813C6.76668 0.447168 6.71565 0.41666 6.64583 0.41666C6.51961 0.41666 6.41665 0.510039 6.41665 0.625V2.29166C6.41667 2.31902 6.41076 2.34612 6.39925 2.37141C6.38774 2.39669 6.37086 2.41967 6.34957 2.43902C6.32829 2.45837 6.30302 2.47371 6.2752 2.48418C6.24739 2.49464 6.21758 2.50002 6.18748 2.5C3.43211 2.5 1.12477 4.13533 0.580057 6.30635C1.55807 5.52754 3.67561 5 6.1875 5Z" fill="#5A5A5A"/>
</svg>
