<svg width="20" height="20" viewBox="0 0 20 20" fill="none" xmlns="http://www.w3.org/2000/svg">
<path d="M1.66797 18.3333C1.66797 16.5652 2.37035 14.8695 3.62059 13.6193C4.87083 12.369 6.56653 11.6667 8.33464 11.6667C10.1027 11.6667 11.7984 12.369 13.0487 13.6193C14.2989 14.8695 15.0013 16.5652 15.0013 18.3333H13.3346C13.3346 17.0072 12.8079 15.7355 11.8702 14.7978C10.9325 13.8601 9.66072 13.3333 8.33464 13.3333C7.00855 13.3333 5.73678 13.8601 4.7991 14.7978C3.86142 15.7355 3.33464 17.0072 3.33464 18.3333H1.66797ZM8.33464 10.8333C5.57214 10.8333 3.33464 8.59583 3.33464 5.83333C3.33464 3.07083 5.57214 0.833328 8.33464 0.833328C11.0971 0.833328 13.3346 3.07083 13.3346 5.83333C13.3346 8.59583 11.0971 10.8333 8.33464 10.8333ZM8.33464 9.16666C10.1763 9.16666 11.668 7.67499 11.668 5.83333C11.668 3.99166 10.1763 2.49999 8.33464 2.49999C6.49297 2.49999 5.0013 3.99166 5.0013 5.83333C5.0013 7.67499 6.49297 9.16666 8.33464 9.16666ZM15.238 12.2525C16.4091 12.7799 17.403 13.6344 18.1001 14.7131C18.7973 15.7918 19.1681 17.0489 19.168 18.3333H17.5013C17.5015 17.37 17.2234 16.4271 16.7005 15.618C16.1777 14.8089 15.4322 14.168 14.5538 13.7725L15.238 12.2525ZM14.6646 2.84416C15.5042 3.19024 16.2221 3.77794 16.7271 4.53269C17.2322 5.28743 17.5016 6.1752 17.5013 7.08333C17.5017 8.22694 17.0744 9.32935 16.3034 10.174C15.5325 11.0187 14.4735 11.5446 13.3346 11.6483V9.97083C13.9521 9.88239 14.5249 9.59834 14.9691 9.16038C15.4132 8.72241 15.7052 8.1536 15.8023 7.53744C15.8993 6.92128 15.7963 6.29024 15.5083 5.73696C15.2203 5.18367 14.7625 4.73728 14.2021 4.46333L14.6646 2.84416Z" fill="white"/>
</svg>
