<svg width="66" height="27" viewBox="0 0 66 27" fill="none" xmlns="http://www.w3.org/2000/svg">
<rect width="66" height="27" fill="white"/>
<path d="M34.0305 9.84869C33.9963 12.6696 36.4359 14.2437 38.2737 15.1797C40.1618 16.1399 40.796 16.7557 40.7885 17.6145C40.7745 18.9287 39.2824 19.5088 37.8863 19.5313C35.4504 19.5707 34.0341 18.844 32.9081 18.2943L32.0306 22.5857C33.1603 23.1297 35.2521 23.6042 37.4212 23.625C42.513 23.625 45.8442 20.9981 45.8623 16.9252C45.8822 11.7562 39.0213 11.4701 39.0682 9.15963C39.0844 8.45905 39.724 7.71145 41.1255 7.52137C41.8193 7.42534 43.7344 7.35186 45.9056 8.39684L46.7578 4.24484C45.5902 3.80049 44.0895 3.375 42.221 3.375C37.4285 3.375 34.0577 6.03767 34.0305 9.84869ZM54.9464 3.73264C54.0166 3.73264 53.2331 4.29946 52.8834 5.1693L45.6101 23.32H50.6981L51.7106 20.3955H57.9281L58.5155 23.32H63L59.0866 3.73264H54.9464ZM55.6582 9.02392L57.1266 16.3792H53.1052L55.6582 9.02392ZM27.8616 3.73288L23.8509 23.3198H28.6995L32.7082 3.73239L27.8616 3.73288ZM20.689 3.73288L15.6424 17.0646L13.601 5.72878C13.3615 4.46334 12.4155 3.73264 11.3651 3.73264H3.11555L3 4.30142C4.69359 4.68551 6.61781 5.30501 7.78359 5.96786C8.49703 6.37277 8.70047 6.72673 8.93484 7.68892L12.8013 23.32H17.925L25.7803 3.73264L20.689 3.73288Z" fill="url(#paint0_linear_955_3169)"/>
<defs>
<linearGradient id="paint0_linear_955_3169" x1="2761.44" y1="64.2465" x2="2822.7" y2="-2015.31" gradientUnits="userSpaceOnUse">
<stop stop-color="#13158C"/>
<stop offset="1" stop-color="#254AA5"/>
</linearGradient>
</defs>
</svg>
